STARTFONT 2.1
COMMENT
COMMENT Converted from OpenType font "Q:\font stuff\winfont\kimidori mugcup.ttf" by "otf2bdf 3.0".
COMMENT
FONT -FreeType-kimidori mugcup-Medium-R-Normal--62-620-72-72-P-201-ISO10646-1
SIZE 62 72 72
FONTBOUNDINGBOX 80 62 0 -12
STARTPROPERTIES 19
FOUNDRY "FreeType"
FAMILY_NAME "kimidori mugcup"
WEIGHT_NAME "Medium"
SLANT "R"
SETWIDTH_NAME "Normal"
ADD_STYLE_NAME ""
PIXEL_SIZE 62
POINT_SIZE 620
RESOLUTION_X 72
RESOLUTION_Y 72
SPACING "P"
AVERAGE_WIDTH 201
CHARSET_REGISTRY "ISO10646"
CHARSET_ENCODING "1"
FONT_ASCENT 49
FONT_DESCENT 12
COPYRIGHT "copyright (c) 2002 by charlie. @ caramel syrup"
_OTF_FONTFILE "Q:\font stuff\winfont\kimidori mugcup.ttf"
_OTF_PSNAME "kimidori-mugcup"
ENDPROPERTIES
CHARS 219
STARTCHAR 0020
ENCODING 32
SWIDTH 500 0
DWIDTH 31 0
BBX 0 0 0 0
BITMAP
ENDCHAR
STARTCHAR 0021
ENCODING 33
SWIDTH 483 0
DWIDTH 30 0
BBX 20 50 0 0
BITMAP
FFFFF0
FFFFF0
C30C30
C30C30
C30C30
C30C30
FFFFF0
FFFFF0
C30C30
C30C30
C30C30
C30C30
FFFFF0
FFFFF0
C30C30
C30C30
C30C30
C30C30
FFFFF0
FFFFF0
C30C30
C30C30
C30C30
C30C30
FFFFF0
FFFFF0
C30C30
C30C30
C30C30
C30C30
FFFFF0
FFFFF0
000000
000000
000000
000000
FFFFF0
FFFFF0
C30C30
C30C30
C30C30
C30C30
FFFFF0
FFFFF0
C30C30
C30C30
C30C30
C30C30
FFFFF0
FFFFF0
ENDCHAR
STARTCHAR 0022
ENCODING 34
SWIDTH 483 0
DWIDTH 30 0
BBX 20 14 0 36
BITMAP
FF0FF0
FF0FF0
C30C30
C30C30
C30C30
C30C30
FF0FF0
FF0FF0
C30C30
C30C30
C30C30
C30C30
FF0FF0
FF0FF0
ENDCHAR
STARTCHAR 0023
ENCODING 35
SWIDTH 1161 0
DWIDTH 72 0
BBX 62 50 0 0
BITMAP
000FFFC00FFFC000
000FFFC00FFFC000
000C30C00C30C000
000C30C00C30C000
000C30C00C30C000
000C30C00C30C000
000FFFC00FFFC000
000FFFC00FFFC000
000C30C00C30C000
000C30C00C30C000
000C30C00C30C000
000C30C00C30C000
FFFFFFFFFFFFFFFC
FFFFFFFFFFFFFFFC
C30C30C30C30C30C
C30C30C30C30C30C
C30C30C30C30C30C
C30C30C30C30C30C
FFFFFFFFFFFFFFFC
FFFFFFFFFFFFFFFC
000C30C00C30C000
000C30C00C30C000
000C30C00C30C000
000C30C00C30C000
000FFFC00FFFC000
000FFFC00FFFC000
000C30C00C30C000
000C30C00C30C000
000C30C00C30C000
000C30C00C30C000
FFFFFFFFFFFFFFFC
FFFFFFFFFFFFFFFC
C30C30C30C30C30C
C30C30C30C30C30C
C30C30C30C30C30C
C30C30C30C30C30C
FFFFFFFFFFFFFFFC
FFFFFFFFFFFFFFFC
000C30C00C30C000
000C30C00C30C000
000C30C00C30C000
000C30C00C30C000
000FFFC00FFFC000
000FFFC00FFFC000
000C30C00C30C000
000C30C00C30C000
000C30C00C30C000
000C30C00C30C000
000FFFC00FFFC000
000FFFC00FFFC000
ENDCHAR
STARTCHAR 0024
ENCODING 36
SWIDTH 1064 0
DWIDTH 66 0
BBX 56 56 0 -6
BITMAP
000000FF000000
000000FF000000
000000C3000000
000000C3000000
000000C3000000
000000C3000000
03FFFFFFFFFFC0
03FFFFFFFFFFC0
030C30C30C30C0
030C30C30C30C0
030C30C30C30C0
030C30C30C30C0
FFFFFFFFFFFFFF
FFFFFFFFFFFFFF
C30C00C30030C3
C30C00C30030C3
C30C00C30030C3
C30C00C30030C3
FFFC00FF003FFF
FFFC00FF003FFF
C30C00C3000000
C30C00C3000000
C30C00C3000000
C30C00C3000000
FFFFFFFFFFFFFF
FFFFFFFFFFFFFF
C30C30C30C30C3
C30C30C30C30C3
C30C30C30C30C3
C30C30C30C30C3
FFFFFFFFFFFFFF
FFFFFFFFFFFFFF
000000C30030C3
000000C30030C3
000000C30030C3
000000C30030C3
FFFC00FF003FFF
FFFC00FF003FFF
C30C00C30030C3
C30C00C30030C3
C30C00C30030C3
C30C00C30030C3
FFFFFFFFFFFFFF
FFFFFFFFFFFFFF
030C30C30C30C0
030C30C30C30C0
030C30C30C30C0
030C30C30C30C0
03FFFFFFFFFFC0
03FFFFFFFFFFC0
000000C3000000
000000C3000000
000000C3000000
000000C3000000
000000FF000000
000000FF000000
ENDCHAR
STARTCHAR 0025
ENCODING 37
SWIDTH 1064 0
DWIDTH 66 0
BBX 56 50 0 0
BITMAP
FFFFF0000FFFFF
FFFFF0000FFFFF
C30C30000C30C3
C30C30000C30C3
C30C30000C30C3
C30C30000C30C3
FFFFF003FFFFFF
FFFFF003FFFFFF
C30C30030C0000
C30C30030C0000
C30C30030C0000
C30C30030C0000
FF0FF0FFFC0000
FF0FF0FFFC0000
C30C30C3000000
C30C30C3000000
C30C30C3000000
C30C30C3000000
FFFFF0FF000000
FFFFF0FF000000
C30C30C3000000
C30C30C3000000
C30C30C3000000
C30C30C3000000
FFFFF0FF0FFFFF
FFFFF0FF0FFFFF
000000C30C30C3
000000C30C30C3
000000C30C30C3
000000C30C30C3
00003FFF0FFFFF
00003FFF0FFFFF
000030C00C30C3
000030C00C30C3
000030C00C30C3
000030C00C30C3
000FFFC00FF0FF
000FFFC00FF0FF
000C30000C30C3
000C30000C30C3
000C30000C30C3
000C30000C30C3
FFFFF0000FFFFF
FFFFF0000FFFFF
C30C00000C30C3
C30C00000C30C3
C30C00000C30C3
C30C00000C30C3
FFFC00000FFFFF
FFFC00000FFFFF
ENDCHAR
STARTCHAR 0026
ENCODING 38
SWIDTH 1064 0
DWIDTH 66 0
BBX 56 50 0 0
BITMAP
000FFFFFFC0000
000FFFFFFC0000
000C30C30C0000
000C30C30C0000
000C30C30C0000
000C30C30C0000
03FFFFFFFFF000
03FFFFFFFFF000
030C30030C3000
030C30030C3000
030C30030C3000
030C30030C3000
03FFF003FFF000
03FFF003FFF000
030C30030C3000
030C30030C3000
030C30030C3000
030C30030C3000
03FFFFFFFFF0FF
03FFFFFFFFF0FF
030C30C30C00C3
030C30C30C00C3
030C30C30C00C3
030C30C30C00C3
FFFFFFFFFFFFFF
FFFFFFFFFFFFFF
C30C00C30C30C0
C30C00C30C30C0
C30C00C30C30C0
C30C00C30C30C0
FFFC00FFFFFFC0
FFFC00FFFFFFC0
C30C00C30C3000
C30C00C30C3000
C30C00C30C3000
C30C00C30C3000
FFFC00FFFFFFFF
FFFC00FFFFFFFF
C30C00C30C30C3
C30C00C30C30C3
C30C00C30C30C3
C30C00C30C30C3
FFFFFFFFFC3FFF
FFFFFFFFFC3FFF
030C30C30030C3
030C30C30030C3
030C30C30030C3
030C30C30030C3
03FFFFFF003FFF
03FFFFFF003FFF
ENDCHAR
STARTCHAR 0027
ENCODING 39
SWIDTH 387 0
DWIDTH 24 0
BBX 14 26 0 24
BITMAP
FFFC
FFFC
C30C
C30C
C30C
C30C
FFFC
FFFC
C30C
C30C
C30C
C30C
FFFC
FFFC
030C
030C
030C
030C
FFFC
FFFC
C300
C300
C300
C300
FF00
FF00
ENDCHAR
STARTCHAR 0028
ENCODING 40
SWIDTH 677 0
DWIDTH 42 0
BBX 32 50 0 0
BITMAP
000FFFFF
000FFFFF
000C30C3
000C30C3
000C30C3
000C30C3
03FFFFFF
03FFFFFF
030C3000
030C3000
030C3000
030C3000
FFFFF000
FFFFF000
C30C0000
C30C0000
C30C0000
C30C0000
FFFC0000
FFFC0000
C30C0000
C30C0000
C30C0000
C30C0000
FFFC0000
FFFC0000
C30C0000
C30C0000
C30C0000
C30C0000
FFFC0000
FFFC0000
C30C0000
C30C0000
C30C0000
C30C0000
FFFFF000
FFFFF000
030C3000
030C3000
030C3000
030C3000
03FFFFFF
03FFFFFF
000C30C3
000C30C3
000C30C3
000C30C3
000FFFFF
000FFFFF
ENDCHAR
STARTCHAR 0029
ENCODING 41
SWIDTH 677 0
DWIDTH 42 0
BBX 32 50 0 0
BITMAP
FFFFF000
FFFFF000
C30C3000
C30C3000
C30C3000
C30C3000
FFFFFFC0
FFFFFFC0
000C30C0
000C30C0
000C30C0
000C30C0
000FFFFF
000FFFFF
000030C3
000030C3
000030C3
000030C3
00003FFF
00003FFF
000030C3
000030C3
000030C3
000030C3
00003FFF
00003FFF
000030C3
000030C3
000030C3
000030C3
00003FFF
00003FFF
000030C3
000030C3
000030C3
000030C3
000FFFFF
000FFFFF
000C30C0
000C30C0
000C30C0
000C30C0
FFFFFFC0
FFFFFFC0
C30C3000
C30C3000
C30C3000
C30C3000
FFFFF000
FFFFF000
ENDCHAR
STARTCHAR 002A
ENCODING 42
SWIDTH 774 0
DWIDTH 48 0
BBX 38 32 0 12
BITMAP
000FFFC000
000FFFC000
000C30C000
000C30C000
000C30C000
000C30C000
FF0FFFC3FC
FF0FFFC3FC
C30C30C30C
C30C30C30C
C30C30C30C
C30C30C30C
FFFFFFFFFC
FFFFFFFFFC
030C30C300
030C30C300
030C30C300
030C30C300
FFFFFFFFFC
FFFFFFFFFC
C30C30C30C
C30C30C30C
C30C30C30C
C30C30C30C
FF0FFFC3FC
FF0FFFC3FC
000C30C000
000C30C000
000C30C000
000C30C000
000FFFC000
000FFFC000
ENDCHAR
STARTCHAR 002B
ENCODING 43
SWIDTH 967 0
DWIDTH 60 0
BBX 50 50 0 0
BITMAP
00003FFF000000
00003FFF000000
000030C3000000
000030C3000000
000030C3000000
000030C3000000
00003FFF000000
00003FFF000000
000030C3000000
000030C3000000
000030C3000000
000030C3000000
00003FFF000000
00003FFF000000
000030C3000000
000030C3000000
000030C3000000
000030C3000000
FFFFFFFFFFFFC0
FFFFFFFFFFFFC0
C30C30C30C30C0
C30C30C30C30C0
C30C30C30C30C0
C30C30C30C30C0
FFFFFFFFFFFFC0
FFFFFFFFFFFFC0
C30C30C30C30C0
C30C30C30C30C0
C30C30C30C30C0
C30C30C30C30C0
FFFFFFFFFFFFC0
FFFFFFFFFFFFC0
000030C3000000
000030C3000000
000030C3000000
000030C3000000
00003FFF000000
00003FFF000000
000030C3000000
000030C3000000
000030C3000000
000030C3000000
00003FFF000000
00003FFF000000
000030C3000000
000030C3000000
000030C3000000
000030C3000000
00003FFF000000
00003FFF000000
ENDCHAR
STARTCHAR 002C
ENCODING 44
SWIDTH 387 0
DWIDTH 24 0
BBX 14 26 0 -12
BITMAP
FFFC
FFFC
C30C
C30C
C30C
C30C
FFFC
FFFC
C30C
C30C
C30C
C30C
FFFC
FFFC
030C
030C
030C
030C
FFFC
FFFC
C300
C300
C300
C300
FF00
FF00
ENDCHAR
STARTCHAR 002D
ENCODING 45
SWIDTH 967 0
DWIDTH 60 0
BBX 50 14 0 18
BITMAP
FFFFFFFFFFFFC0
FFFFFFFFFFFFC0
C30C30C30C30C0
C30C30C30C30C0
C30C30C30C30C0
C30C30C30C30C0
FFFFFFFFFFFFC0
FFFFFFFFFFFFC0
C30C30C30C30C0
C30C30C30C30C0
C30C30C30C30C0
C30C30C30C30C0
FFFFFFFFFFFFC0
FFFFFFFFFFFFC0
ENDCHAR
STARTCHAR 002E
ENCODING 46
SWIDTH 387 0
DWIDTH 24 0
BBX 14 14 0 0
BITMAP
FFFC
FFFC
C30C
C30C
C30C
C30C
FFFC
FFFC
C30C
C30C
C30C
C30C
FFFC
FFFC
ENDCHAR
STARTCHAR 002F
ENCODING 47
SWIDTH 1064 0
DWIDTH 66 0
BBX 56 50 0 0
BITMAP
00000000003FFF
00000000003FFF
000000000030C3
000000000030C3
000000000030C3
000000000030C3
000000000FFFFF
000000000FFFFF
000000000C30C0
000000000C30C0
000000000C30C0
000000000C30C0
00000003FFFFC0
00000003FFFFC0
000000030C3000
000000030C3000
000000030C3000
000000030C3000
000000FFFFF000
000000FFFFF000
000000C30C0000
000000C30C0000
000000C30C0000
000000C30C0000
00003FFFFC0000
00003FFFFC0000
000030C3000000
000030C3000000
000030C3000000
000030C3000000
000FFFFF000000
000FFFFF000000
000C30C0000000
000C30C0000000
000C30C0000000
000C30C0000000
03FFFFC0000000
03FFFFC0000000
030C3000000000
030C3000000000
030C3000000000
030C3000000000
FFFFF000000000
FFFFF000000000
C30C0000000000
C30C0000000000
C30C0000000000
C30C0000000000
FFFC0000000000
FFFC0000000000
ENDCHAR
STARTCHAR 0030
ENCODING 48
SWIDTH 967 0
DWIDTH 60 0
BBX 50 50 0 0
BITMAP
03FFFFFFFFF000
03FFFFFFFFF000
030C30C30C3000
030C30C30C3000
030C30C30C3000
030C30C30C3000
FFFFFFFFFFFFC0
FFFFFFFFFFFFC0
C30C30030C30C0
C30C30030C30C0
C30C30030C30C0
C30C30030C30C0
FFFFF003FFFFC0
FFFFF003FFFFC0
C30C30030C30C0
C30C30030C30C0
C30C30030C30C0
C30C30030C30C0
FFFFF0FFFFFFC0
FFFFF0FFFFFFC0
C30C30C30C30C0
C30C30C30C30C0
C30C30C30C30C0
C30C30C30C30C0
FFFFFFFFFFFFC0
FFFFFFFFFFFFC0
C30C30C30C30C0
C30C30C30C30C0
C30C30C30C30C0
C30C30C30C30C0
FFFFFFC3FFFFC0
FFFFFFC3FFFFC0
C30C30030C30C0
C30C30030C30C0
C30C30030C30C0
C30C30030C30C0
FFFFF003FFFFC0
FFFFF003FFFFC0
C30C30030C30C0
C30C30030C30C0
C30C30030C30C0
C30C30030C30C0
FFFFFFFFFFFFC0
FFFFFFFFFFFFC0
030C30C30C3000
030C30C30C3000
030C30C30C3000
030C30C30C3000
03FFFFFFFFF000
03FFFFFFFFF000
ENDCHAR
STARTCHAR 0031
ENCODING 49
SWIDTH 677 0
DWIDTH 42 0
BBX 32 50 0 0
BITMAP
03FFFFFF
03FFFFFF
030C30C3
030C30C3
030C30C3
030C30C3
FFFFFFFF
FFFFFFFF
C30C30C3
C30C30C3
C30C30C3
C30C30C3
FFFFFFFF
FFFFFFFF
000C30C3
000C30C3
000C30C3
000C30C3
000FFFFF
000FFFFF
000C30C3
000C30C3
000C30C3
000C30C3
000FFFFF
000FFFFF
000C30C3
000C30C3
000C30C3
000C30C3
000FFFFF
000FFFFF
000C30C3
000C30C3
000C30C3
000C30C3
000FFFFF
000FFFFF
000C30C3
000C30C3
000C30C3
000C30C3
000FFFFF
000FFFFF
000C30C3
000C30C3
000C30C3
000C30C3
000FFFFF
000FFFFF
ENDCHAR
STARTCHAR 0032
ENCODING 50
SWIDTH 967 0
DWIDTH 60 0
BBX 50 50 0 0
BITMAP
FFFFFFFFFFF000
FFFFFFFFFFF000
C30C30C30C3000
C30C30C30C3000
C30C30C30C3000
C30C30C30C3000
FFFFFFFFFFFFC0
FFFFFFFFFFFFC0
000000030C30C0
000000030C30C0
000000030C30C0
000000030C30C0
00000003FFFFC0
00000003FFFFC0
000000030C30C0
000000030C30C0
000000030C30C0
000000030C30C0
03FFFFFFFFFFC0
03FFFFFFFFFFC0
030C30C30C0000
030C30C30C0000
030C30C30C0000
030C30C30C0000
FFFFFFFFFC0000
FFFFFFFFFC0000
C30C3000000000
C30C3000000000
C30C3000000000
C30C3000000000
FFFFF000000000
FFFFF000000000
C30C3000000000
C30C3000000000
C30C3000000000
C30C3000000000
FFFFF000000000
FFFFF000000000
C30C3000000000
C30C3000000000
C30C3000000000
C30C3000000000
FFFFFFFFFFFFC0
FFFFFFFFFFFFC0
030C30C30C30C0
030C30C30C30C0
030C30C30C30C0
030C30C30C30C0
03FFFFFFFFFFC0
03FFFFFFFFFFC0
ENDCHAR
STARTCHAR 0033
ENCODING 51
SWIDTH 967 0
DWIDTH 60 0
BBX 50 50 0 0
BITMAP
FFFFFFFFFFF000
FFFFFFFFFFF000
C30C30C30C3000
C30C30C30C3000
C30C30C30C3000
C30C30C30C3000
FFFFFFFFFFFFC0
FFFFFFFFFFFFC0
000000030C30C0
000000030C30C0
000000030C30C0
000000030C30C0
00000003FFFFC0
00000003FFFFC0
000000030C30C0
000000030C30C0
000000030C30C0
000000030C30C0
FFFFFFFFFFFFC0
FFFFFFFFFFFFC0
C30C30C30C0000
C30C30C30C0000
C30C30C30C0000
C30C30C30C0000
FFFFFFFFFFFFC0
FFFFFFFFFFFFC0
000000030C30C0
000000030C30C0
000000030C30C0
000000030C30C0
00000003FFFFC0
00000003FFFFC0
000000030C30C0
000000030C30C0
000000030C30C0
000000030C30C0
00000003FFFFC0
00000003FFFFC0
000000030C30C0
000000030C30C0
000000030C30C0
000000030C30C0
FFFFFFFFFFFFC0
FFFFFFFFFFFFC0
C30C30C30C3000
C30C30C30C3000
C30C30C30C3000
C30C30C30C3000
FFFFFFFFFFF000
FFFFFFFFFFF000
ENDCHAR
STARTCHAR 0034
ENCODING 52
SWIDTH 967 0
DWIDTH 60 0
BBX 50 50 0 0
BITMAP
000FFFFFFFFFC0
000FFFFFFFFFC0
000C30C30C30C0
000C30C30C30C0
000C30C30C30C0
000C30C30C30C0
03FFFFFFFFFFC0
03FFFFFFFFFFC0
030C30C30C30C0
030C30C30C30C0
030C30C30C30C0
030C30C30C30C0
FFFFFFC3FFFFC0
FFFFFFC3FFFFC0
C30C30030C30C0
C30C30030C30C0
C30C30030C30C0
C30C30030C30C0
FFFFF003FFFFC0
FFFFF003FFFFC0
C30C30030C30C0
C30C30030C30C0
C30C30030C30C0
C30C30030C30C0
FFFFF003FFFFC0
FFFFF003FFFFC0
C30C30030C30C0
C30C30030C30C0
C30C30030C30C0
C30C30030C30C0
FFFFFFFFFFFFC0
FFFFFFFFFFFFC0
030C30C30C30C0
030C30C30C30C0
030C30C30C30C0
030C30C30C30C0
03FFFFFFFFFFC0
03FFFFFFFFFFC0
000000030C30C0
000000030C30C0
000000030C30C0
000000030C30C0
00000003FFFFC0
00000003FFFFC0
000000030C30C0
000000030C30C0
000000030C30C0
000000030C30C0
00000003FFFFC0
00000003FFFFC0
ENDCHAR
STARTCHAR 0035
ENCODING 53
SWIDTH 967 0
DWIDTH 60 0
BBX 50 50 0 0
BITMAP
FFFFFFFFFFFFC0
FFFFFFFFFFFFC0
C30C30C30C30C0
C30C30C30C30C0
C30C30C30C30C0
C30C30C30C30C0
FFFFFFFFFFFFC0
FFFFFFFFFFFFC0
C30C3000000000
C30C3000000000
C30C3000000000
C30C3000000000
FFFFF000000000
FFFFF000000000
C30C3000000000
C30C3000000000
C30C3000000000
C30C3000000000
FFFFFFFFFFF000
FFFFFFFFFFF000
030C30C30C3000
030C30C30C3000
030C30C30C3000
030C30C30C3000
03FFFFFFFFFFC0
03FFFFFFFFFFC0
000000030C30C0
000000030C30C0
000000030C30C0
000000030C30C0
00000003FFFFC0
00000003FFFFC0
000000030C30C0
000000030C30C0
000000030C30C0
000000030C30C0
FFFFF003FFFFC0
FFFFF003FFFFC0
C30C30030C30C0
C30C30030C30C0
C30C30030C30C0
C30C30030C30C0
FFFFFFFFFFFFC0
FFFFFFFFFFFFC0
C30C30C30C3000
C30C30C30C3000
C30C30C30C3000
C30C30C30C3000
FFFFFFFFFFF000
FFFFFFFFFFF000
ENDCHAR
STARTCHAR 0036
ENCODING 54
SWIDTH 967 0
DWIDTH 60 0
BBX 50 50 0 0
BITMAP
03FFFFFFFFF000
03FFFFFFFFF000
030C30C30C3000
030C30C30C3000
030C30C30C3000
030C30C30C3000
FFFFFFFFFFFFC0
FFFFFFFFFFFFC0
C30C30030C30C0
C30C30030C30C0
C30C30030C30C0
C30C30030C30C0
FFFFF003FFFFC0
FFFFF003FFFFC0
C30C3000000000
C30C3000000000
C30C3000000000
C30C3000000000
FFFFFFFFFFF000
FFFFFFFFFFF000
C30C30C30C3000
C30C30C30C3000
C30C30C30C3000
C30C30C30C3000
FFFFFFFFFFFFC0
FFFFFFFFFFFFC0
C30C30030C30C0
C30C30030C30C0
C30C30030C30C0
C30C30030C30C0
FFFFF003FFFFC0
FFFFF003FFFFC0
C30C30030C30C0
C30C30030C30C0
C30C30030C30C0
C30C30030C30C0
FFFFF003FFFFC0
FFFFF003FFFFC0
C30C30030C30C0
C30C30030C30C0
C30C30030C30C0
C30C30030C30C0
FFFFFFFFFFFFC0
FFFFFFFFFFFFC0
030C30C30C3000
030C30C30C3000
030C30C30C3000
030C30C30C3000
03FFFFFFFFF000
03FFFFFFFFF000
ENDCHAR
STARTCHAR 0037
ENCODING 55
SWIDTH 967 0
DWIDTH 60 0
BBX 50 50 0 0
BITMAP
FFFFFFFFFFFFC0
FFFFFFFFFFFFC0
C30C30C30C30C0
C30C30C30C30C0
C30C30C30C30C0
C30C30C30C30C0
FFFFFFFFFFFFC0
FFFFFFFFFFFFC0
C30C30030C30C0
C30C30030C30C0
C30C30030C30C0
C30C30030C30C0
FFFFF003FFFFC0
FFFFF003FFFFC0
C30C30030C30C0
C30C30030C30C0
C30C30030C30C0
C30C30030C30C0
FFFFF003FFFFC0
FFFFF003FFFFC0
C30C30030C30C0
C30C30030C30C0
C30C30030C30C0
C30C30030C30C0
FFFFF003FFFFC0
FFFFF003FFFFC0
000000030C30C0
000000030C30C0
000000030C30C0
000000030C30C0
00000003FFFFC0
00000003FFFFC0
000000030C30C0
000000030C30C0
000000030C30C0
000000030C30C0
00000003FFFFC0
00000003FFFFC0
000000030C30C0
000000030C30C0
000000030C30C0
000000030C30C0
00000003FFFFC0
00000003FFFFC0
000000030C30C0
000000030C30C0
000000030C30C0
000000030C30C0
00000003FFFFC0
00000003FFFFC0
ENDCHAR
STARTCHAR 0038
ENCODING 56
SWIDTH 967 0
DWIDTH 60 0
BBX 50 50 0 0
BITMAP
03FFFFFFFFF000
03FFFFFFFFF000
030C30C30C3000
030C30C30C3000
030C30C30C3000
030C30C30C3000
FFFFFFFFFFFFC0
FFFFFFFFFFFFC0
C30C30030C30C0
C30C30030C30C0
C30C30030C30C0
C30C30030C30C0
FFFFF003FFFFC0
FFFFF003FFFFC0
C30C30030C30C0
C30C30030C30C0
C30C30030C30C0
C30C30030C30C0
FFFFFFFFFFFFC0
FFFFFFFFFFFFC0
000C30C30C0000
000C30C30C0000
000C30C30C0000
000C30C30C0000
FFFFFFFFFFFFC0
FFFFFFFFFFFFC0
C30C30030C30C0
C30C30030C30C0
C30C30030C30C0
C30C30030C30C0
FFFFF003FFFFC0
FFFFF003FFFFC0
C30C30030C30C0
C30C30030C30C0
C30C30030C30C0
C30C30030C30C0
FFFFF003FFFFC0
FFFFF003FFFFC0
C30C30030C30C0
C30C30030C30C0
C30C30030C30C0
C30C30030C30C0
FFFFFFFFFFFFC0
FFFFFFFFFFFFC0
030C30C30C3000
030C30C30C3000
030C30C30C3000
030C30C30C3000
03FFFFFFFFF000
03FFFFFFFFF000
ENDCHAR
STARTCHAR 0039
ENCODING 57
SWIDTH 967 0
DWIDTH 60 0
BBX 50 50 0 0
BITMAP
03FFFFFFFFF000
03FFFFFFFFF000
030C30C30C3000
030C30C30C3000
030C30C30C3000
030C30C30C3000
FFFFFFFFFFFFC0
FFFFFFFFFFFFC0
C30C30030C30C0
C30C30030C30C0
C30C30030C30C0
C30C30030C30C0
FFFFF003FFFFC0
FFFFF003FFFFC0
C30C30030C30C0
C30C30030C30C0
C30C30030C30C0
C30C30030C30C0
FFFFF003FFFFC0
FFFFF003FFFFC0
C30C30030C30C0
C30C30030C30C0
C30C30030C30C0
C30C30030C30C0
FFFFFFFFFFFFC0
FFFFFFFFFFFFC0
030C30C30C30C0
030C30C30C30C0
030C30C30C30C0
030C30C30C30C0
03FFFFFFFFFFC0
03FFFFFFFFFFC0
000000030C30C0
000000030C30C0
000000030C30C0
000000030C30C0
00000003FFFFC0
00000003FFFFC0
000000030C30C0
000000030C30C0
000000030C30C0
000000030C30C0
00000003FFFFC0
00000003FFFFC0
000000030C30C0
000000030C30C0
000000030C30C0
000000030C30C0
00000003FFFFC0
00000003FFFFC0
ENDCHAR
STARTCHAR 003A
ENCODING 58
SWIDTH 387 0
DWIDTH 24 0
BBX 14 38 0 6
BITMAP
FFFC
FFFC
C30C
C30C
C30C
C30C
FFFC
FFFC
C30C
C30C
C30C
C30C
FFFC
FFFC
0000
0000
0000
0000
0000
0000
0000
0000
0000
0000
FFFC
FFFC
C30C
C30C
C30C
C30C
FFFC
FFFC
C30C
C30C
C30C
C30C
FFFC
FFFC
ENDCHAR
STARTCHAR 003B
ENCODING 59
SWIDTH 387 0
DWIDTH 24 0
BBX 14 50 0 -6
BITMAP
FFFC
FFFC
C30C
C30C
C30C
C30C
FFFC
FFFC
C30C
C30C
C30C
C30C
FFFC
FFFC
0000
0000
0000
0000
0000
0000
0000
0000
0000
0000
FFFC
FFFC
C30C
C30C
C30C
C30C
FFFC
FFFC
C30C
C30C
C30C
C30C
FFFC
FFFC
030C
030C
030C
030C
FFFC
FFFC
C300
C300
C300
C300
FF00
FF00
ENDCHAR
STARTCHAR 003C
ENCODING 60
SWIDTH 774 0
DWIDTH 48 0
BBX 38 50 0 0
BITMAP
000000FFFC
000000FFFC
000000C30C
000000C30C
000000C30C
000000C30C
00003FFFFC
00003FFFFC
000030C300
000030C300
000030C300
000030C300
000FFFFF00
000FFFFF00
000C30C000
000C30C000
000C30C000
000C30C000
03FFFFC000
03FFFFC000
030C300000
030C300000
030C300000
030C300000
FFFFF00000
FFFFF00000
C30C000000
C30C000000
C30C000000
C30C000000
FFFFF00000
FFFFF00000
030C300000
030C300000
030C300000
030C300000
03FFFFC000
03FFFFC000
000C30C000
000C30C000
000C30C000
000C30C000
000FFFFF00
000FFFFF00
000030C300
000030C300
000030C300
000030C300
00003FFF00
00003FFF00
ENDCHAR
STARTCHAR 003D
ENCODING 61
SWIDTH 967 0
DWIDTH 60 0
BBX 50 38 0 6
BITMAP
FFFFFFFFFFFFC0
FFFFFFFFFFFFC0
C30C30C30C30C0
C30C30C30C30C0
C30C30C30C30C0
C30C30C30C30C0
FFFFFFFFFFFFC0
FFFFFFFFFFFFC0
C30C30C30C30C0
C30C30C30C30C0
C30C30C30C30C0
C30C30C30C30C0
FFFFFFFFFFFFC0
FFFFFFFFFFFFC0
00000000000000
00000000000000
00000000000000
00000000000000
00000000000000
00000000000000
00000000000000
00000000000000
00000000000000
00000000000000
FFFFFFFFFFFFC0
FFFFFFFFFFFFC0
C30C30C30C30C0
C30C30C30C30C0
C30C30C30C30C0
C30C30C30C30C0
FFFFFFFFFFFFC0
FFFFFFFFFFFFC0
C30C30C30C30C0
C30C30C30C30C0
C30C30C30C30C0
C30C30C30C30C0
FFFFFFFFFFFFC0
FFFFFFFFFFFFC0
ENDCHAR
STARTCHAR 003E
ENCODING 62
SWIDTH 774 0
DWIDTH 48 0
BBX 38 50 0 0
BITMAP
FFFC000000
FFFC000000
C30C000000
C30C000000
C30C000000
C30C000000
FFFFF00000
FFFFF00000
030C300000
030C300000
030C300000
030C300000
03FFFFC000
03FFFFC000
000C30C000
000C30C000
000C30C000
000C30C000
000FFFFF00
000FFFFF00
000030C300
000030C300
000030C300
000030C300
00003FFFFC
00003FFFFC
000000C30C
000000C30C
000000C30C
000000C30C
00003FFFFC
00003FFFFC
000030C300
000030C300
000030C300
000030C300
000FFFFF00
000FFFFF00
000C30C000
000C30C000
000C30C000
000C30C000
03FFFFC000
03FFFFC000
030C300000
030C300000
030C300000
030C300000
03FFF00000
03FFF00000
ENDCHAR
STARTCHAR 003F
ENCODING 63
SWIDTH 967 0
DWIDTH 60 0
BBX 50 50 0 0
BITMAP
03FFFFFFFFF000
03FFFFFFFFF000
030C30C30C3000
030C30C30C3000
030C30C30C3000
030C30C30C3000
FFFFFFFFFFFFC0
FFFFFFFFFFFFC0
C30C30030C30C0
C30C30030C30C0
C30C30030C30C0
C30C30030C30C0
FFFFF003FFFFC0
FFFFF003FFFFC0
C30C30030C30C0
C30C30030C30C0
C30C30030C30C0
C30C30030C30C0
FFFFF0FFFFFFC0
FFFFF0FFFFFFC0
000000C30C3000
000000C30C3000
000000C30C3000
000000C30C3000
00003FFFFFF000
00003FFFFFF000
000030C30C0000
000030C30C0000
000030C30C0000
000030C30C0000
00003FFFFC0000
00003FFFFC0000
00000000000000
00000000000000
00000000000000
00000000000000
00003FFFFC0000
00003FFFFC0000
000030C30C0000
000030C30C0000
000030C30C0000
000030C30C0000
00003FFFFC0000
00003FFFFC0000
000030C30C0000
000030C30C0000
000030C30C0000
000030C30C0000
00003FFFFC0000
00003FFFFC0000
ENDCHAR
STARTCHAR 0040
ENCODING 64
SWIDTH 1064 0
DWIDTH 66 0
BBX 56 50 0 0
BITMAP
03FFFFFFFFFFC0
03FFFFFFFFFFC0
030C30C30C30C0
030C30C30C30C0
030C30C30C30C0
030C30C30C30C0
FFFFFFFFFFFFFF
FFFFFFFFFFFFFF
C30C00000030C3
C30C00000030C3
C30C00000030C3
C30C00000030C3
FFFC00FFFC3FFF
FFFC00FFFC3FFF
C30C00C30C30C3
C30C00C30C30C3
C30C00C30C30C3
C30C00C30C30C3
FFFC3FFFFC3FFF
FFFC3FFFFC3FFF
C30C30C30030C3
C30C30C30030C3
C30C30C30030C3
C30C30C30030C3
FFFC3FFF003FFF
FFFC3FFF003FFF
C30C30C30030C3
C30C30C30030C3
C30C30C30030C3
C30C30C30030C3
FFFC3FFFFFFFFF
FFFC3FFFFFFFFF
C30C00C30C30C0
C30C00C30C30C0
C30C00C30C30C0
C30C00C30C30C0
FFFC00FFFFFFC0
FFFC00FFFFFFC0
C30C0000000000
C30C0000000000
C30C0000000000
C30C0000000000
FFFFFFFFFFFFFF
FFFFFFFFFFFFFF
030C30C30C30C3
030C30C30C30C3
030C30C30C30C3
030C30C30C30C3
03FFFFFFFFFFFF
03FFFFFFFFFFFF
ENDCHAR
STARTCHAR 0041
ENCODING 65
SWIDTH 967 0
DWIDTH 60 0
BBX 50 50 0 0
BITMAP
03FFFFFFFFF000
03FFFFFFFFF000
030C30C30C3000
030C30C30C3000
030C30C30C3000
030C30C30C3000
FFFFFFFFFFFFC0
FFFFFFFFFFFFC0
C30C30030C30C0
C30C30030C30C0
C30C30030C30C0
C30C30030C30C0
FFFFF003FFFFC0
FFFFF003FFFFC0
C30C30030C30C0
C30C30030C30C0
C30C30030C30C0
C30C30030C30C0
FFFFFFFFFFFFC0
FFFFFFFFFFFFC0
C30C30C30C30C0
C30C30C30C30C0
C30C30C30C30C0
C30C30C30C30C0
FFFFFFFFFFFFC0
FFFFFFFFFFFFC0
C30C30030C30C0
C30C30030C30C0
C30C30030C30C0
C30C30030C30C0
FFFFF003FFFFC0
FFFFF003FFFFC0
C30C30030C30C0
C30C30030C30C0
C30C30030C30C0
C30C30030C30C0
FFFFF003FFFFC0
FFFFF003FFFFC0
C30C30030C30C0
C30C30030C30C0
C30C30030C30C0
C30C30030C30C0
FFFFF003FFFFC0
FFFFF003FFFFC0
C30C30030C30C0
C30C30030C30C0
C30C30030C30C0
C30C30030C30C0
FFFFF003FFFFC0
FFFFF003FFFFC0
ENDCHAR
STARTCHAR 0042
ENCODING 66
SWIDTH 967 0
DWIDTH 60 0
BBX 50 50 0 0
BITMAP
FFFFFFFFFFF000
FFFFFFFFFFF000
C30C30C30C3000
C30C30C30C3000
C30C30C30C3000
C30C30C30C3000
FFFFFFFFFFFFC0
FFFFFFFFFFFFC0
C30C30030C30C0
C30C30030C30C0
C30C30030C30C0
C30C30030C30C0
FFFFF003FFFFC0
FFFFF003FFFFC0
C30C30030C30C0
C30C30030C30C0
C30C30030C30C0
C30C30030C30C0
FFFFFFFFFFFFC0
FFFFFFFFFFFFC0
C30C30C30C0000
C30C30C30C0000
C30C30C30C0000
C30C30C30C0000
FFFFFFFFFFFFC0
FFFFFFFFFFFFC0
C30C30030C30C0
C30C30030C30C0
C30C30030C30C0
C30C30030C30C0
FFFFF003FFFFC0
FFFFF003FFFFC0
C30C30030C30C0
C30C30030C30C0
C30C30030C30C0
C30C30030C30C0
FFFFF003FFFFC0
FFFFF003FFFFC0
C30C30030C30C0
C30C30030C30C0
C30C30030C30C0
C30C30030C30C0
FFFFFFFFFFFFC0
FFFFFFFFFFFFC0
C30C30C30C3000
C30C30C30C3000
C30C30C30C3000
C30C30C30C3000
FFFFFFFFFFF000
FFFFFFFFFFF000
ENDCHAR
STARTCHAR 0043
ENCODING 67
SWIDTH 967 0
DWIDTH 60 0
BBX 50 50 0 0
BITMAP
03FFFFFFFFF000
03FFFFFFFFF000
030C30C30C3000
030C30C30C3000
030C30C30C3000
030C30C30C3000
FFFFFFFFFFFFC0
FFFFFFFFFFFFC0
C30C30030C30C0
C30C30030C30C0
C30C30030C30C0
C30C30030C30C0
FFFFF003FFFFC0
FFFFF003FFFFC0
C30C30030C30C0
C30C30030C30C0
C30C30030C30C0
C30C30030C30C0
FFFFF003FFFFC0
FFFFF003FFFFC0
C30C3000000000
C30C3000000000
C30C3000000000
C30C3000000000
FFFFF003FFFFC0
FFFFF003FFFFC0
C30C30030C30C0
C30C30030C30C0
C30C30030C30C0
C30C30030C30C0
FFFFF003FFFFC0
FFFFF003FFFFC0
C30C30030C30C0
C30C30030C30C0
C30C30030C30C0
C30C30030C30C0
FFFFF003FFFFC0
FFFFF003FFFFC0
C30C30030C30C0
C30C30030C30C0
C30C30030C30C0
C30C30030C30C0
FFFFFFFFFFFFC0
FFFFFFFFFFFFC0
030C30C30C3000
030C30C30C3000
030C30C30C3000
030C30C30C3000
03FFFFFFFFF000
03FFFFFFFFF000
ENDCHAR
STARTCHAR 0044
ENCODING 68
SWIDTH 967 0
DWIDTH 60 0
BBX 50 50 0 0
BITMAP
FFFFFFFFFFF000
FFFFFFFFFFF000
C30C30C30C3000
C30C30C30C3000
C30C30C30C3000
C30C30C30C3000
FFFFFFFFFFFFC0
FFFFFFFFFFFFC0
C30C30030C30C0
C30C30030C30C0
C30C30030C30C0
C30C30030C30C0
FFFFF003FFFFC0
FFFFF003FFFFC0
C30C30030C30C0
C30C30030C30C0
C30C30030C30C0
C30C30030C30C0
FFFFF003FFFFC0
FFFFF003FFFFC0
C30C30030C30C0
C30C30030C30C0
C30C30030C30C0
C30C30030C30C0
FFFFF003FFFFC0
FFFFF003FFFFC0
C30C30030C30C0
C30C30030C30C0
C30C30030C30C0
C30C30030C30C0
FFFFF003FFFFC0
FFFFF003FFFFC0
C30C30030C30C0
C30C30030C30C0
C30C30030C30C0
C30C30030C30C0
FFFFF003FFFFC0
FFFFF003FFFFC0
C30C30030C30C0
C30C30030C30C0
C30C30030C30C0
C30C30030C30C0
FFFFFFFFFFFFC0
FFFFFFFFFFFFC0
C30C30C30C3000
C30C30C30C3000
C30C30C30C3000
C30C30C30C3000
FFFFFFFFFFF000
FFFFFFFFFFF000
ENDCHAR
STARTCHAR 0045
ENCODING 69
SWIDTH 967 0
DWIDTH 60 0
BBX 50 50 0 0
BITMAP
FFFFFFFFFFFFC0
FFFFFFFFFFFFC0
C30C30C30C30C0
C30C30C30C30C0
C30C30C30C30C0
C30C30C30C30C0
FFFFFFFFFFFFC0
FFFFFFFFFFFFC0
C30C3000000000
C30C3000000000
C30C3000000000
C30C3000000000
FFFFF000000000
FFFFF000000000
C30C3000000000
C30C3000000000
C30C3000000000
C30C3000000000
FFFFFFFFFFFFC0
FFFFFFFFFFFFC0
C30C30C30C30C0
C30C30C30C30C0
C30C30C30C30C0
C30C30C30C30C0
FFFFFFFFFFFFC0
FFFFFFFFFFFFC0
C30C3000000000
C30C3000000000
C30C3000000000
C30C3000000000
FFFFF000000000
FFFFF000000000
C30C3000000000
C30C3000000000
C30C3000000000
C30C3000000000
FFFFF000000000
FFFFF000000000
C30C3000000000
C30C3000000000
C30C3000000000
C30C3000000000
FFFFFFFFFFFFC0
FFFFFFFFFFFFC0
C30C30C30C30C0
C30C30C30C30C0
C30C30C30C30C0
C30C30C30C30C0
FFFFFFFFFFFFC0
FFFFFFFFFFFFC0
ENDCHAR
STARTCHAR 0046
ENCODING 70
SWIDTH 967 0
DWIDTH 60 0
BBX 50 50 0 0
BITMAP
FFFFFFFFFFFFC0
FFFFFFFFFFFFC0
C30C30C30C30C0
C30C30C30C30C0
C30C30C30C30C0
C30C30C30C30C0
FFFFFFFFFFFFC0
FFFFFFFFFFFFC0
C30C3000000000
C30C3000000000
C30C3000000000
C30C3000000000
FFFFF000000000
FFFFF000000000
C30C3000000000
C30C3000000000
C30C3000000000
C30C3000000000
FFFFFFFFFFFFC0
FFFFFFFFFFFFC0
C30C30C30C30C0
C30C30C30C30C0
C30C30C30C30C0
C30C30C30C30C0
FFFFFFFFFFFFC0
FFFFFFFFFFFFC0
C30C3000000000
C30C3000000000
C30C3000000000
C30C3000000000
FFFFF000000000
FFFFF000000000
C30C3000000000
C30C3000000000
C30C3000000000
C30C3000000000
FFFFF000000000
FFFFF000000000
C30C3000000000
C30C3000000000
C30C3000000000
C30C3000000000
FFFFF000000000
FFFFF000000000
C30C3000000000
C30C3000000000
C30C3000000000
C30C3000000000
FFFFF000000000
FFFFF000000000
ENDCHAR
STARTCHAR 0047
ENCODING 71
SWIDTH 967 0
DWIDTH 60 0
BBX 50 50 0 0
BITMAP
03FFFFFFFFF000
03FFFFFFFFF000
030C30C30C3000
030C30C30C3000
030C30C30C3000
030C30C30C3000
FFFFFFFFFFFFC0
FFFFFFFFFFFFC0
C30C30030C30C0
C30C30030C30C0
C30C30030C30C0
C30C30030C30C0
FFFFF003FFFFC0
FFFFF003FFFFC0
C30C3000000000
C30C3000000000
C30C3000000000
C30C3000000000
FFFFF0FFFFFFC0
FFFFF0FFFFFFC0
C30C30C30C30C0
C30C30C30C30C0
C30C30C30C30C0
C30C30C30C30C0
FFFFF0FFFFFFC0
FFFFF0FFFFFFC0
C30C30030C30C0
C30C30030C30C0
C30C30030C30C0
C30C30030C30C0
FFFFF003FFFFC0
FFFFF003FFFFC0
C30C30030C30C0
C30C30030C30C0
C30C30030C30C0
C30C30030C30C0
FFFFF003FFFFC0
FFFFF003FFFFC0
C30C30030C30C0
C30C30030C30C0
C30C30030C30C0
C30C30030C30C0
FFFFFFFFFFFFC0
FFFFFFFFFFFFC0
030C30C30C3000
030C30C30C3000
030C30C30C3000
030C30C30C3000
03FFFFFFFFF000
03FFFFFFFFF000
ENDCHAR
STARTCHAR 0048
ENCODING 72
SWIDTH 967 0
DWIDTH 60 0
BBX 50 50 0 0
BITMAP
FFFFF003FFFFC0
FFFFF003FFFFC0
C30C30030C30C0
C30C30030C30C0
C30C30030C30C0
C30C30030C30C0
FFFFF003FFFFC0
FFFFF003FFFFC0
C30C30030C30C0
C30C30030C30C0
C30C30030C30C0
C30C30030C30C0
FFFFF003FFFFC0
FFFFF003FFFFC0
C30C30030C30C0
C30C30030C30C0
C30C30030C30C0
C30C30030C30C0
FFFFFFFFFFFFC0
FFFFFFFFFFFFC0
C30C30C30C30C0
C30C30C30C30C0
C30C30C30C30C0
C30C30C30C30C0
FFFFFFFFFFFFC0
FFFFFFFFFFFFC0
C30C30030C30C0
C30C30030C30C0
C30C30030C30C0
C30C30030C30C0
FFFFF003FFFFC0
FFFFF003FFFFC0
C30C30030C30C0
C30C30030C30C0
C30C30030C30C0
C30C30030C30C0
FFFFF003FFFFC0
FFFFF003FFFFC0
C30C30030C30C0
C30C30030C30C0
C30C30030C30C0
C30C30030C30C0
FFFFF003FFFFC0
FFFFF003FFFFC0
C30C30030C30C0
C30C30030C30C0
C30C30030C30C0
C30C30030C30C0
FFFFF003FFFFC0
FFFFF003FFFFC0
ENDCHAR
STARTCHAR 0049
ENCODING 73
SWIDTH 870 0
DWIDTH 54 0
BBX 44 50 0 0
BITMAP
FFFFFFFFFFF0
FFFFFFFFFFF0
C30C30C30C30
C30C30C30C30
C30C30C30C30
C30C30C30C30
FFFFFFFFFFF0
FFFFFFFFFFF0
000C30C30000
000C30C30000
000C30C30000
000C30C30000
000FFFFF0000
000FFFFF0000
000C30C30000
000C30C30000
000C30C30000
000C30C30000
000FFFFF0000
000FFFFF0000
000C30C30000
000C30C30000
000C30C30000
000C30C30000
000FFFFF0000
000FFFFF0000
000C30C30000
000C30C30000
000C30C30000
000C30C30000
000FFFFF0000
000FFFFF0000
000C30C30000
000C30C30000
000C30C30000
000C30C30000
000FFFFF0000
000FFFFF0000
000C30C30000
000C30C30000
000C30C30000
000C30C30000
FFFFFFFFFFF0
FFFFFFFFFFF0
C30C30C30C30
C30C30C30C30
C30C30C30C30
C30C30C30C30
FFFFFFFFFFF0
FFFFFFFFFFF0
ENDCHAR
STARTCHAR 004A
ENCODING 74
SWIDTH 967 0
DWIDTH 60 0
BBX 50 50 0 0
BITMAP
00000003FFFFC0
00000003FFFFC0
000000030C30C0
000000030C30C0
000000030C30C0
000000030C30C0
00000003FFFFC0
00000003FFFFC0
000000030C30C0
000000030C30C0
000000030C30C0
000000030C30C0
00000003FFFFC0
00000003FFFFC0
000000030C30C0
000000030C30C0
000000030C30C0
000000030C30C0
00000003FFFFC0
00000003FFFFC0
000000030C30C0
000000030C30C0
000000030C30C0
000000030C30C0
FFFFF003FFFFC0
FFFFF003FFFFC0
C30C30030C30C0
C30C30030C30C0
C30C30030C30C0
C30C30030C30C0
FFFFF003FFFFC0
FFFFF003FFFFC0
C30C30030C30C0
C30C30030C30C0
C30C30030C30C0
C30C30030C30C0
FFFFF003FFFFC0
FFFFF003FFFFC0
C30C30030C30C0
C30C30030C30C0
C30C30030C30C0
C30C30030C30C0
FFFFFFFFFFFFC0
FFFFFFFFFFFFC0
030C30C30C3000
030C30C30C3000
030C30C30C3000
030C30C30C3000
03FFFFFFFFF000
03FFFFFFFFF000
ENDCHAR
STARTCHAR 004B
ENCODING 75
SWIDTH 967 0
DWIDTH 60 0
BBX 50 50 0 0
BITMAP
FFFFF003FFFFC0
FFFFF003FFFFC0
C30C30030C30C0
C30C30030C30C0
C30C30030C30C0
C30C30030C30C0
FFFFF003FFFFC0
FFFFF003FFFFC0
C30C30030C30C0
C30C30030C30C0
C30C30030C30C0
C30C30030C30C0
FFFFF003FFFFC0
FFFFF003FFFFC0
C30C30030C3000
C30C30030C3000
C30C30030C3000
C30C30030C3000
FFFFFFFFFFF000
FFFFFFFFFFF000
C30C30C30C0000
C30C30C30C0000
C30C30C30C0000
C30C30C30C0000
FFFFFFFFFFF000
FFFFFFFFFFF000
C30C30030C3000
C30C30030C3000
C30C30030C3000
C30C30030C3000
FFFFF003FFFFC0
FFFFF003FFFFC0
C30C30030C30C0
C30C30030C30C0
C30C30030C30C0
C30C30030C30C0
FFFFF003FFFFC0
FFFFF003FFFFC0
C30C30030C30C0
C30C30030C30C0
C30C30030C30C0
C30C30030C30C0
FFFFF003FFFFC0
FFFFF003FFFFC0
C30C30030C30C0
C30C30030C30C0
C30C30030C30C0
C30C30030C30C0
FFFFF003FFFFC0
FFFFF003FFFFC0
ENDCHAR
STARTCHAR 004C
ENCODING 76
SWIDTH 967 0
DWIDTH 60 0
BBX 50 50 0 0
BITMAP
FFFFF000000000
FFFFF000000000
C30C3000000000
C30C3000000000
C30C3000000000
C30C3000000000
FFFFF000000000
FFFFF000000000
C30C3000000000
C30C3000000000
C30C3000000000
C30C3000000000
FFFFF000000000
FFFFF000000000
C30C3000000000
C30C3000000000
C30C3000000000
C30C3000000000
FFFFF000000000
FFFFF000000000
C30C3000000000
C30C3000000000
C30C3000000000
C30C3000000000
FFFFF000000000
FFFFF000000000
C30C3000000000
C30C3000000000
C30C3000000000
C30C3000000000
FFFFF000000000
FFFFF000000000
C30C3000000000
C30C3000000000
C30C3000000000
C30C3000000000
FFFFF000000000
FFFFF000000000
C30C3000000000
C30C3000000000
C30C3000000000
C30C3000000000
FFFFFFFFFFFFC0
FFFFFFFFFFFFC0
C30C30C30C30C0
C30C30C30C30C0
C30C30C30C30C0
C30C30C30C30C0
FFFFFFFFFFFFC0
FFFFFFFFFFFFC0
ENDCHAR
STARTCHAR 004D
ENCODING 77
SWIDTH 1064 0
DWIDTH 66 0
BBX 56 50 0 0
BITMAP
FFFFF0000FFFFF
FFFFF0000FFFFF
C30C30000C30C3
C30C30000C30C3
C30C30000C30C3
C30C30000C30C3
FFFFFFC3FFFFFF
FFFFFFC3FFFFFF
C30C30C30C30C3
C30C30C30C30C3
C30C30C30C30C3
C30C30C30C30C3
FFFFFFFFFFFFFF
FFFFFFFFFFFFFF
C30C30C30C30C3
C30C30C30C30C3
C30C30C30C30C3
C30C30C30C30C3
FFFFFFFFFFFFFF
FFFFFFFFFFFFFF
C30C30C30C30C3
C30C30C30C30C3
C30C30C30C30C3
C30C30C30C30C3
FFFFF0FF0FFFFF
FFFFF0FF0FFFFF
C30C30000C30C3
C30C30000C30C3
C30C30000C30C3
C30C30000C30C3
FFFFF0000FFFFF
FFFFF0000FFFFF
C30C30000C30C3
C30C30000C30C3
C30C30000C30C3
C30C30000C30C3
FFFFF0000FFFFF
FFFFF0000FFFFF
C30C30000C30C3
C30C30000C30C3
C30C30000C30C3
C30C30000C30C3
FFFFF0000FFFFF
FFFFF0000FFFFF
C30C30000C30C3
C30C30000C30C3
C30C30000C30C3
C30C30000C30C3
FFFFF0000FFFFF
FFFFF0000FFFFF
ENDCHAR
STARTCHAR 004E
ENCODING 78
SWIDTH 967 0
DWIDTH 60 0
BBX 50 50 0 0
BITMAP
FFFFF003FFFFC0
FFFFF003FFFFC0
C30C30030C30C0
C30C30030C30C0
C30C30030C30C0
C30C30030C30C0
FFFFF003FFFFC0
FFFFF003FFFFC0
C30C30030C30C0
C30C30030C30C0
C30C30030C30C0
C30C30030C30C0
FFFFFFC3FFFFC0
FFFFFFC3FFFFC0
C30C30C30C30C0
C30C30C30C30C0
C30C30C30C30C0
C30C30C30C30C0
FFFFFFFFFFFFC0
FFFFFFFFFFFFC0
C30C30C30C30C0
C30C30C30C30C0
C30C30C30C30C0
C30C30C30C30C0
FFFFFFFFFFFFC0
FFFFFFFFFFFFC0
C30C30C30C30C0
C30C30C30C30C0
C30C30C30C30C0
C30C30C30C30C0
FFFFF0FFFFFFC0
FFFFF0FFFFFFC0
C30C30030C30C0
C30C30030C30C0
C30C30030C30C0
C30C30030C30C0
FFFFF003FFFFC0
FFFFF003FFFFC0
C30C30030C30C0
C30C30030C30C0
C30C30030C30C0
C30C30030C30C0
FFFFF003FFFFC0
FFFFF003FFFFC0
C30C30030C30C0
C30C30030C30C0
C30C30030C30C0
C30C30030C30C0
FFFFF003FFFFC0
FFFFF003FFFFC0
ENDCHAR
STARTCHAR 004F
ENCODING 79
SWIDTH 967 0
DWIDTH 60 0
BBX 50 50 0 0
BITMAP
03FFFFFFFFF000
03FFFFFFFFF000
030C30C30C3000
030C30C30C3000
030C30C30C3000
030C30C30C3000
FFFFFFFFFFFFC0
FFFFFFFFFFFFC0
C30C30030C30C0
C30C30030C30C0
C30C30030C30C0
C30C30030C30C0
FFFFF003FFFFC0
FFFFF003FFFFC0
C30C30030C30C0
C30C30030C30C0
C30C30030C30C0
C30C30030C30C0
FFFFF003FFFFC0
FFFFF003FFFFC0
C30C30030C30C0
C30C30030C30C0
C30C30030C30C0
C30C30030C30C0
FFFFF003FFFFC0
FFFFF003FFFFC0
C30C30030C30C0
C30C30030C30C0
C30C30030C30C0
C30C30030C30C0
FFFFF003FFFFC0
FFFFF003FFFFC0
C30C30030C30C0
C30C30030C30C0
C30C30030C30C0
C30C30030C30C0
FFFFF003FFFFC0
FFFFF003FFFFC0
C30C30030C30C0
C30C30030C30C0
C30C30030C30C0
C30C30030C30C0
FFFFFFFFFFFFC0
FFFFFFFFFFFFC0
030C30C30C3000
030C30C30C3000
030C30C30C3000
030C30C30C3000
03FFFFFFFFF000
03FFFFFFFFF000
ENDCHAR
STARTCHAR 0050
ENCODING 80
SWIDTH 967 0
DWIDTH 60 0
BBX 50 50 0 0
BITMAP
FFFFFFFFFFF000
FFFFFFFFFFF000
C30C30C30C3000
C30C30C30C3000
C30C30C30C3000
C30C30C30C3000
FFFFFFFFFFFFC0
FFFFFFFFFFFFC0
C30C30030C30C0
C30C30030C30C0
C30C30030C30C0
C30C30030C30C0
FFFFF003FFFFC0
FFFFF003FFFFC0
C30C30030C30C0
C30C30030C30C0
C30C30030C30C0
C30C30030C30C0
FFFFF003FFFFC0
FFFFF003FFFFC0
C30C30030C30C0
C30C30030C30C0
C30C30030C30C0
C30C30030C30C0
FFFFFFFFFFFFC0
FFFFFFFFFFFFC0
C30C30C30C3000
C30C30C30C3000
C30C30C30C3000
C30C30C30C3000
FFFFFFFFFFF000
FFFFFFFFFFF000
C30C3000000000
C30C3000000000
C30C3000000000
C30C3000000000
FFFFF000000000
FFFFF000000000
C30C3000000000
C30C3000000000
C30C3000000000
C30C3000000000
FFFFF000000000
FFFFF000000000
C30C3000000000
C30C3000000000
C30C3000000000
C30C3000000000
FFFFF000000000
FFFFF000000000
ENDCHAR
STARTCHAR 0051
ENCODING 81
SWIDTH 967 0
DWIDTH 60 0
BBX 50 62 0 -12
BITMAP
03FFFFFFFFF000
03FFFFFFFFF000
030C30C30C3000
030C30C30C3000
030C30C30C3000
030C30C30C3000
FFFFFFFFFFFFC0
FFFFFFFFFFFFC0
C30C30030C30C0
C30C30030C30C0
C30C30030C30C0
C30C30030C30C0
FFFFF003FFFFC0
FFFFF003FFFFC0
C30C30030C30C0
C30C30030C30C0
C30C30030C30C0
C30C30030C30C0
FFFFF003FFFFC0
FFFFF003FFFFC0
C30C30030C30C0
C30C30030C30C0
C30C30030C30C0
C30C30030C30C0
FFFFF003FFFFC0
FFFFF003FFFFC0
C30C30030C30C0
C30C30030C30C0
C30C30030C30C0
C30C30030C30C0
FFFFF003FFFFC0
FFFFF003FFFFC0
C30C30030C30C0
C30C30030C30C0
C30C30030C30C0
C30C30030C30C0
FFFFF003FFFFC0
FFFFF003FFFFC0
C30C30030C30C0
C30C30030C30C0
C30C30030C30C0
C30C30030C30C0
FFFFFFFFFFFFC0
FFFFFFFFFFFFC0
030C30C30C3000
030C30C30C3000
030C30C30C3000
030C30C30C3000
03FFFFFFFFF000
03FFFFFFFFF000
000030C30C0000
000030C30C0000
000030C30C0000
000030C30C0000
00003FFFFFFFC0
00003FFFFFFFC0
000030C30C30C0
000030C30C30C0
000030C30C30C0
000030C30C30C0
00003FFFFFFFC0
00003FFFFFFFC0
ENDCHAR
STARTCHAR 0052
ENCODING 82
SWIDTH 967 0
DWIDTH 60 0
BBX 50 50 0 0
BITMAP
FFFFFFFFFFF000
FFFFFFFFFFF000
C30C30C30C3000
C30C30C30C3000
C30C30C30C3000
C30C30C30C3000
FFFFFFFFFFFFC0
FFFFFFFFFFFFC0
C30C30030C30C0
C30C30030C30C0
C30C30030C30C0
C30C30030C30C0
FFFFF003FFFFC0
FFFFF003FFFFC0
C30C30030C30C0
C30C30030C30C0
C30C30030C30C0
C30C30030C30C0
FFFFF003FFFFC0
FFFFF003FFFFC0
C30C30030C30C0
C30C30030C30C0
C30C30030C30C0
C30C30030C30C0
FFFFFFFFFFFFC0
FFFFFFFFFFFFC0
C30C30C30C3000
C30C30C30C3000
C30C30C30C3000
C30C30C30C3000
FFFFFFFFFFFFC0
FFFFFFFFFFFFC0
C30C30030C30C0
C30C30030C30C0
C30C30030C30C0
C30C30030C30C0
FFFFF003FFFFC0
FFFFF003FFFFC0
C30C30030C30C0
C30C30030C30C0
C30C30030C30C0
C30C30030C30C0
FFFFF003FFFFC0
FFFFF003FFFFC0
C30C30030C30C0
C30C30030C30C0
C30C30030C30C0
C30C30030C30C0
FFFFF003FFFFC0
FFFFF003FFFFC0
ENDCHAR
STARTCHAR 0053
ENCODING 83
SWIDTH 967 0
DWIDTH 60 0
BBX 50 50 0 0
BITMAP
03FFFFFFFFF000
03FFFFFFFFF000
030C30C30C3000
030C30C30C3000
030C30C30C3000
030C30C30C3000
FFFFFFFFFFFFC0
FFFFFFFFFFFFC0
C30C30030C30C0
C30C30030C30C0
C30C30030C30C0
C30C30030C30C0
FFFFF003FFFFC0
FFFFF003FFFFC0
C30C3000000000
C30C3000000000
C30C3000000000
C30C3000000000
FFFFFFFFFFFFC0
FFFFFFFFFFFFC0
C30C30C30C30C0
C30C30C30C30C0
C30C30C30C30C0
C30C30C30C30C0
FFFFFFFFFFFFC0
FFFFFFFFFFFFC0
000000030C30C0
000000030C30C0
000000030C30C0
000000030C30C0
FFFFF003FFFFC0
FFFFF003FFFFC0
C30C30030C30C0
C30C30030C30C0
C30C30030C30C0
C30C30030C30C0
FFFFF003FFFFC0
FFFFF003FFFFC0
C30C30030C30C0
C30C30030C30C0
C30C30030C30C0
C30C30030C30C0
FFFFFFFFFFFFC0
FFFFFFFFFFFFC0
030C30C30C3000
030C30C30C3000
030C30C30C3000
030C30C30C3000
03FFFFFFFFF000
03FFFFFFFFF000
ENDCHAR
STARTCHAR 0054
ENCODING 84
SWIDTH 1064 0
DWIDTH 66 0
BBX 56 50 0 0
BITMAP
FFFFFFFFFFFFFF
FFFFFFFFFFFFFF
C30C30C30C30C3
C30C30C30C30C3
C30C30C30C30C3
C30C30C30C30C3
FFFFFFFFFFFFFF
FFFFFFFFFFFFFF
C30030C30C00C3
C30030C30C00C3
C30030C30C00C3
C30030C30C00C3
FF003FFFFC00FF
FF003FFFFC00FF
000030C30C0000
000030C30C0000
000030C30C0000
000030C30C0000
00003FFFFC0000
00003FFFFC0000
000030C30C0000
000030C30C0000
000030C30C0000
000030C30C0000
00003FFFFC0000
00003FFFFC0000
000030C30C0000
000030C30C0000
000030C30C0000
000030C30C0000
00003FFFFC0000
00003FFFFC0000
000030C30C0000
000030C30C0000
000030C30C0000
000030C30C0000
00003FFFFC0000
00003FFFFC0000
000030C30C0000
000030C30C0000
000030C30C0000
000030C30C0000
000FFFFFFFF000
000FFFFFFFF000
000C30C30C3000
000C30C30C3000
000C30C30C3000
000C30C30C3000
000FFFFFFFF000
000FFFFFFFF000
ENDCHAR
STARTCHAR 0055
ENCODING 85
SWIDTH 967 0
DWIDTH 60 0
BBX 50 50 0 0
BITMAP
FFFFF003FFFFC0
FFFFF003FFFFC0
C30C30030C30C0
C30C30030C30C0
C30C30030C30C0
C30C30030C30C0
FFFFF003FFFFC0
FFFFF003FFFFC0
C30C30030C30C0
C30C30030C30C0
C30C30030C30C0
C30C30030C30C0
FFFFF003FFFFC0
FFFFF003FFFFC0
C30C30030C30C0
C30C30030C30C0
C30C30030C30C0
C30C30030C30C0
FFFFF003FFFFC0
FFFFF003FFFFC0
C30C30030C30C0
C30C30030C30C0
C30C30030C30C0
C30C30030C30C0
FFFFF003FFFFC0
FFFFF003FFFFC0
C30C30030C30C0
C30C30030C30C0
C30C30030C30C0
C30C30030C30C0
FFFFF003FFFFC0
FFFFF003FFFFC0
C30C30030C30C0
C30C30030C30C0
C30C30030C30C0
C30C30030C30C0
FFFFF003FFFFC0
FFFFF003FFFFC0
C30C30030C30C0
C30C30030C30C0
C30C30030C30C0
C30C30030C30C0
FFFFFFFFFFFFC0
FFFFFFFFFFFFC0
030C30C30C3000
030C30C30C3000
030C30C30C3000
030C30C30C3000
03FFFFFFFFF000
03FFFFFFFFF000
ENDCHAR
STARTCHAR 0056
ENCODING 86
SWIDTH 967 0
DWIDTH 60 0
BBX 50 50 0 0
BITMAP
FFFFF003FFFFC0
FFFFF003FFFFC0
C30C30030C30C0
C30C30030C30C0
C30C30030C30C0
C30C30030C30C0
FFFFF003FFFFC0
FFFFF003FFFFC0
C30C30030C30C0
C30C30030C30C0
C30C30030C30C0
C30C30030C30C0
FFFFF003FFFFC0
FFFFF003FFFFC0
C30C30030C30C0
C30C30030C30C0
C30C30030C30C0
C30C30030C30C0
FFFFF003FFFFC0
FFFFF003FFFFC0
C30C30030C30C0
C30C30030C30C0
C30C30030C30C0
C30C30030C30C0
FFFFF003FFFFC0
FFFFF003FFFFC0
C30C30030C30C0
C30C30030C30C0
C30C30030C30C0
C30C30030C30C0
FFFFF003FFFFC0
FFFFF003FFFFC0
C30C30030C30C0
C30C30030C30C0
C30C30030C30C0
C30C30030C30C0
FFFFF003FFFFC0
FFFFF003FFFFC0
030C30030C3000
030C30030C3000
030C30030C3000
030C30030C3000
03FFFFFFFFF000
03FFFFFFFFF000
000C30C30C0000
000C30C30C0000
000C30C30C0000
000C30C30C0000
000FFFFFFC0000
000FFFFFFC0000
ENDCHAR
STARTCHAR 0057
ENCODING 87
SWIDTH 1064 0
DWIDTH 66 0
BBX 56 50 0 0
BITMAP
FFFFF0000FFFFF
FFFFF0000FFFFF
C30C30000C30C3
C30C30000C30C3
C30C30000C30C3
C30C30000C30C3
FFFFF0000FFFFF
FFFFF0000FFFFF
C30C30000C30C3
C30C30000C30C3
C30C30000C30C3
C30C30000C30C3
FFFFF0000FFFFF
FFFFF0000FFFFF
C30C30000C30C3
C30C30000C30C3
C30C30000C30C3
C30C30000C30C3
FFFFF0FF0FFFFF
FFFFF0FF0FFFFF
C30C30C30C30C3
C30C30C30C30C3
C30C30C30C30C3
C30C30C30C30C3
FFFFFFFFFFFFFF
FFFFFFFFFFFFFF
C30C30C30C30C3
C30C30C30C30C3
C30C30C30C30C3
C30C30C30C30C3
FFFFFFFFFFFFFF
FFFFFFFFFFFFFF
C30C30C30C30C3
C30C30C30C30C3
C30C30C30C30C3
C30C30C30C30C3
FFFFFFC3FFFFFF
FFFFFFC3FFFFFF
C30C30000C30C3
C30C30000C30C3
C30C30000C30C3
C30C30000C30C3
FFFFF0000FFFFF
FFFFF0000FFFFF
030C30000C30C0
030C30000C30C0
030C30000C30C0
030C30000C30C0
03FFF0000FFFC0
03FFF0000FFFC0
ENDCHAR
STARTCHAR 0058
ENCODING 88
SWIDTH 967 0
DWIDTH 60 0
BBX 50 50 0 0
BITMAP
FFFFF003FFFFC0
FFFFF003FFFFC0
C30C30030C30C0
C30C30030C30C0
C30C30030C30C0
C30C30030C30C0
FFFFF003FFFFC0
FFFFF003FFFFC0
C30C30030C30C0
C30C30030C30C0
C30C30030C30C0
C30C30030C30C0
FFFFF003FFFFC0
FFFFF003FFFFC0
030C30030C3000
030C30030C3000
030C30030C3000
030C30030C3000
03FFFFFFFFF000
03FFFFFFFFF000
000C30C30C0000
000C30C30C0000
000C30C30C0000
000C30C30C0000
03FFFFFFFFF000
03FFFFFFFFF000
030C30030C3000
030C30030C3000
030C30030C3000
030C30030C3000
FFFFF003FFFFC0
FFFFF003FFFFC0
C30C30030C30C0
C30C30030C30C0
C30C30030C30C0
C30C30030C30C0
FFFFF003FFFFC0
FFFFF003FFFFC0
C30C30030C30C0
C30C30030C30C0
C30C30030C30C0
C30C30030C30C0
FFFFF003FFFFC0
FFFFF003FFFFC0
C30C30030C30C0
C30C30030C30C0
C30C30030C30C0
C30C30030C30C0
FFFFF003FFFFC0
FFFFF003FFFFC0
ENDCHAR
STARTCHAR 0059
ENCODING 89
SWIDTH 967 0
DWIDTH 60 0
BBX 50 50 0 0
BITMAP
FFFFF003FFFFC0
FFFFF003FFFFC0
C30C30030C30C0
C30C30030C30C0
C30C30030C30C0
C30C30030C30C0
FFFFF003FFFFC0
FFFFF003FFFFC0
C30C30030C30C0
C30C30030C30C0
C30C30030C30C0
C30C30030C30C0
FFFFF003FFFFC0
FFFFF003FFFFC0
C30C30030C30C0
C30C30030C30C0
C30C30030C30C0
C30C30030C30C0
FFFFFFFFFFFFC0
FFFFFFFFFFFFC0
030C30C30C30C0
030C30C30C30C0
030C30C30C30C0
030C30C30C30C0
03FFFFFFFFFFC0
03FFFFFFFFFFC0
000030C30C0000
000030C30C0000
000030C30C0000
000030C30C0000
00003FFFFC0000
00003FFFFC0000
000030C30C0000
000030C30C0000
000030C30C0000
000030C30C0000
00003FFFFC0000
00003FFFFC0000
000030C30C0000
000030C30C0000
000030C30C0000
000030C30C0000
00003FFFFC0000
00003FFFFC0000
000030C30C0000
000030C30C0000
000030C30C0000
000030C30C0000
00003FFFFC0000
00003FFFFC0000
ENDCHAR
STARTCHAR 005A
ENCODING 90
SWIDTH 967 0
DWIDTH 60 0
BBX 50 50 0 0
BITMAP
FFFFFFFFFFFFC0
FFFFFFFFFFFFC0
C30C30C30C30C0
C30C30C30C30C0
C30C30C30C30C0
C30C30C30C30C0
FFFFFFFFFFFFC0
FFFFFFFFFFFFC0
000000030C30C0
000000030C30C0
000000030C30C0
000000030C30C0
000000FFFFFFC0
000000FFFFFFC0
000000C30C3000
000000C30C3000
000000C30C3000
000000C30C3000
00003FFFFFF000
00003FFFFFF000
000030C30C0000
000030C30C0000
000030C30C0000
000030C30C0000
000FFFFFFC0000
000FFFFFFC0000
000C30C3000000
000C30C3000000
000C30C3000000
000C30C3000000
03FFFFFF000000
03FFFFFF000000
030C30C0000000
030C30C0000000
030C30C0000000
030C30C0000000
FFFFFFC0000000
FFFFFFC0000000
C30C3000000000
C30C3000000000
C30C3000000000
C30C3000000000
FFFFFFFFFFFFC0
FFFFFFFFFFFFC0
C30C30C30C30C0
C30C30C30C30C0
C30C30C30C30C0
C30C30C30C30C0
FFFFFFFFFFFFC0
FFFFFFFFFFFFC0
ENDCHAR
STARTCHAR 005B
ENCODING 91
SWIDTH 580 0
DWIDTH 36 0
BBX 26 50 0 0
BITMAP
FFFFFFC0
FFFFFFC0
C30C30C0
C30C30C0
C30C30C0
C30C30C0
FFFFFFC0
FFFFFFC0
C30C0000
C30C0000
C30C0000
C30C0000
FFFC0000
FFFC0000
C30C0000
C30C0000
C30C0000
C30C0000
FFFC0000
FFFC0000
C30C0000
C30C0000
C30C0000
C30C0000
FFFC0000
FFFC0000
C30C0000
C30C0000
C30C0000
C30C0000
FFFC0000
FFFC0000
C30C0000
C30C0000
C30C0000
C30C0000
FFFC0000
FFFC0000
C30C0000
C30C0000
C30C0000
C30C0000
FFFFFFC0
FFFFFFC0
C30C30C0
C30C30C0
C30C30C0
C30C30C0
FFFFFFC0
FFFFFFC0
ENDCHAR
STARTCHAR 005C
ENCODING 92
SWIDTH 1064 0
DWIDTH 66 0
BBX 56 50 0 0
BITMAP
FFFC0000000000
FFFC0000000000
C30C0000000000
C30C0000000000
C30C0000000000
C30C0000000000
FFFFF000000000
FFFFF000000000
030C3000000000
030C3000000000
030C3000000000
030C3000000000
03FFFFC0000000
03FFFFC0000000
000C30C0000000
000C30C0000000
000C30C0000000
000C30C0000000
000FFFFF000000
000FFFFF000000
000030C3000000
000030C3000000
000030C3000000
000030C3000000
00003FFFFC0000
00003FFFFC0000
000000C30C0000
000000C30C0000
000000C30C0000
000000C30C0000
000000FFFFF000
000000FFFFF000
000000030C3000
000000030C3000
000000030C3000
000000030C3000
00000003FFFFC0
00000003FFFFC0
000000000C30C0
000000000C30C0
000000000C30C0
000000000C30C0
000000000FFFFF
000000000FFFFF
000000000030C3
000000000030C3
000000000030C3
000000000030C3
00000000003FFF
00000000003FFF
ENDCHAR
STARTCHAR 005D
ENCODING 93
SWIDTH 580 0
DWIDTH 36 0
BBX 26 50 0 0
BITMAP
FFFFFFC0
FFFFFFC0
C30C30C0
C30C30C0
C30C30C0
C30C30C0
FFFFFFC0
FFFFFFC0
000C30C0
000C30C0
000C30C0
000C30C0
000FFFC0
000FFFC0
000C30C0
000C30C0
000C30C0
000C30C0
000FFFC0
000FFFC0
000C30C0
000C30C0
000C30C0
000C30C0
000FFFC0
000FFFC0
000C30C0
000C30C0
000C30C0
000C30C0
000FFFC0
000FFFC0
000C30C0
000C30C0
000C30C0
000C30C0
000FFFC0
000FFFC0
000C30C0
000C30C0
000C30C0
000C30C0
FFFFFFC0
FFFFFFC0
C30C30C0
C30C30C0
C30C30C0
C30C30C0
FFFFFFC0
FFFFFFC0
ENDCHAR
STARTCHAR 005E
ENCODING 94
SWIDTH 870 0
DWIDTH 54 0
BBX 44 26 0 24
BITMAP
00003FC00000
00003FC00000
000030C00000
000030C00000
000030C00000
000030C00000
000FFFFF0000
000FFFFF0000
000C30C30000
000C30C30000
000C30C30000
000C30C30000
03FFFFFFFC00
03FFFFFFFC00
030C30C30C00
030C30C30C00
030C30C30C00
030C30C30C00
FFFFF0FFFFF0
FFFFF0FFFFF0
C30C00030C30
C30C00030C30
C30C00030C30
C30C00030C30
FFFC0003FFF0
FFFC0003FFF0
ENDCHAR
STARTCHAR 005F
ENCODING 95
SWIDTH 967 0
DWIDTH 60 0
BBX 50 14 0 0
BITMAP
FFFFFFFFFFFFC0
FFFFFFFFFFFFC0
C30C30C30C30C0
C30C30C30C30C0
C30C30C30C30C0
C30C30C30C30C0
FFFFFFFFFFFFC0
FFFFFFFFFFFFC0
C30C30C30C30C0
C30C30C30C30C0
C30C30C30C30C0
C30C30C30C30C0
FFFFFFFFFFFFC0
FFFFFFFFFFFFC0
ENDCHAR
STARTCHAR 0060
ENCODING 96
SWIDTH 387 0
DWIDTH 24 0
BBX 14 26 0 24
BITMAP
FFFC
FFFC
C30C
C30C
C30C
C30C
FFFC
FFFC
C30C
C30C
C30C
C30C
FFFC
FFFC
C300
C300
C300
C300
FFFC
FFFC
030C
030C
030C
030C
03FC
03FC
ENDCHAR
STARTCHAR 0061
ENCODING 97
SWIDTH 967 0
DWIDTH 60 0
BBX 50 44 0 0
BITMAP
03FFFFFFFFF000
03FFFFFFFFF000
030C30C30C3000
030C30C30C3000
030C30C30C3000
030C30C30C3000
FFFFFFFFFFFFC0
FFFFFFFFFFFFC0
C30C30030C30C0
C30C30030C30C0
C30C30030C30C0
C30C30030C30C0
FFFFF003FFFFC0
FFFFF003FFFFC0
000000030C30C0
000000030C30C0
000000030C30C0
000000030C30C0
03FFFFFFFFFFC0
03FFFFFFFFFFC0
030C30C30C30C0
030C30C30C30C0
030C30C30C30C0
030C30C30C30C0
FFFFFFFFFFFFC0
FFFFFFFFFFFFC0
C30C30030C30C0
C30C30030C30C0
C30C30030C30C0
C30C30030C30C0
FFFFF003FFFFC0
FFFFF003FFFFC0
C30C30030C30C0
C30C30030C30C0
C30C30030C30C0
C30C30030C30C0
FFFFFFFFFFFFC0
FFFFFFFFFFFFC0
030C30C30C3000
030C30C30C3000
030C30C30C3000
030C30C30C3000
03FFFFFFFFF000
03FFFFFFFFF000
ENDCHAR
STARTCHAR 0062
ENCODING 98
SWIDTH 967 0
DWIDTH 60 0
BBX 50 50 0 0
BITMAP
FFFFF000000000
FFFFF000000000
C30C3000000000
C30C3000000000
C30C3000000000
C30C3000000000
FFFFF000000000
FFFFF000000000
C30C3000000000
C30C3000000000
C30C3000000000
C30C3000000000
FFFFF000000000
FFFFF000000000
C30C3000000000
C30C3000000000
C30C3000000000
C30C3000000000
FFFFFFFFFFF000
FFFFFFFFFFF000
C30C30C30C3000
C30C30C30C3000
C30C30C30C3000
C30C30C30C3000
FFFFFFFFFFFFC0
FFFFFFFFFFFFC0
C30C30030C30C0
C30C30030C30C0
C30C30030C30C0
C30C30030C30C0
FFFFF003FFFFC0
FFFFF003FFFFC0
C30C30030C30C0
C30C30030C30C0
C30C30030C30C0
C30C30030C30C0
FFFFF003FFFFC0
FFFFF003FFFFC0
C30C30030C30C0
C30C30030C30C0
C30C30030C30C0
C30C30030C30C0
FFFFFFFFFFFFC0
FFFFFFFFFFFFC0
C30C30C30C3000
C30C30C30C3000
C30C30C30C3000
C30C30C30C3000
FFFFFFFFFFF000
FFFFFFFFFFF000
ENDCHAR
STARTCHAR 0063
ENCODING 99
SWIDTH 967 0
DWIDTH 60 0
BBX 50 44 0 0
BITMAP
03FFFFFFFFF000
03FFFFFFFFF000
030C30C30C3000
030C30C30C3000
030C30C30C3000
030C30C30C3000
FFFFFFFFFFFFC0
FFFFFFFFFFFFC0
C30C30030C30C0
C30C30030C30C0
C30C30030C30C0
C30C30030C30C0
FFFFF003FFFFC0
FFFFF003FFFFC0
C30C30030C30C0
C30C30030C30C0
C30C30030C30C0
C30C30030C30C0
FFFFF003FFFFC0
FFFFF003FFFFC0
C30C3000000000
C30C3000000000
C30C3000000000
C30C3000000000
FFFFF003FFFFC0
FFFFF003FFFFC0
C30C30030C30C0
C30C30030C30C0
C30C30030C30C0
C30C30030C30C0
FFFFF003FFFFC0
FFFFF003FFFFC0
C30C30030C30C0
C30C30030C30C0
C30C30030C30C0
C30C30030C30C0
FFFFFFFFFFFFC0
FFFFFFFFFFFFC0
030C30C30C3000
030C30C30C3000
030C30C30C3000
030C30C30C3000
03FFFFFFFFF000
03FFFFFFFFF000
ENDCHAR
STARTCHAR 0064
ENCODING 100
SWIDTH 967 0
DWIDTH 60 0
BBX 50 50 0 0
BITMAP
00000003FFFFC0
00000003FFFFC0
000000030C30C0
000000030C30C0
000000030C30C0
000000030C30C0
00000003FFFFC0
00000003FFFFC0
000000030C30C0
000000030C30C0
000000030C30C0
000000030C30C0
00000003FFFFC0
00000003FFFFC0
000000030C30C0
000000030C30C0
000000030C30C0
000000030C30C0
03FFFFFFFFFFC0
03FFFFFFFFFFC0
030C30C30C30C0
030C30C30C30C0
030C30C30C30C0
030C30C30C30C0
FFFFFFFFFFFFC0
FFFFFFFFFFFFC0
C30C30030C30C0
C30C30030C30C0
C30C30030C30C0
C30C30030C30C0
FFFFF003FFFFC0
FFFFF003FFFFC0
C30C30030C30C0
C30C30030C30C0
C30C30030C30C0
C30C30030C30C0
FFFFF003FFFFC0
FFFFF003FFFFC0
C30C30030C30C0
C30C30030C30C0
C30C30030C30C0
C30C30030C30C0
FFFFFFFFFFFFC0
FFFFFFFFFFFFC0
030C30C30C30C0
030C30C30C30C0
030C30C30C30C0
030C30C30C30C0
03FFFFFFFFFFC0
03FFFFFFFFFFC0
ENDCHAR
STARTCHAR 0065
ENCODING 101
SWIDTH 967 0
DWIDTH 60 0
BBX 50 44 0 0
BITMAP
03FFFFFFFFF000
03FFFFFFFFF000
030C30C30C3000
030C30C30C3000
030C30C30C3000
030C30C30C3000
FFFFFFFFFFFFC0
FFFFFFFFFFFFC0
C30C30030C30C0
C30C30030C30C0
C30C30030C30C0
C30C30030C30C0
FFFFF003FFFFC0
FFFFF003FFFFC0
C30C30030C30C0
C30C30030C30C0
C30C30030C30C0
C30C30030C30C0
FFFFFFFFFFFFC0
FFFFFFFFFFFFC0
C30C30C30C30C0
C30C30C30C30C0
C30C30C30C30C0
C30C30C30C30C0
FFFFFFFFFFFFC0
FFFFFFFFFFFFC0
C30C3000000000
C30C3000000000
C30C3000000000
C30C3000000000
FFFFF003FFFFC0
FFFFF003FFFFC0
C30C30030C30C0
C30C30030C30C0
C30C30030C30C0
C30C30030C30C0
FFFFFFFFFFFFC0
FFFFFFFFFFFFC0
030C30C30C3000
030C30C30C3000
030C30C30C3000
030C30C30C3000
03FFFFFFFFF000
03FFFFFFFFF000
ENDCHAR
STARTCHAR 0066
ENCODING 102
SWIDTH 967 0
DWIDTH 60 0
BBX 50 50 0 0
BITMAP
00003FFFFFFFC0
00003FFFFFFFC0
000030C30C30C0
000030C30C30C0
000030C30C30C0
000030C30C30C0
000FFFFFFFFFC0
000FFFFFFFFFC0
000C30C3000000
000C30C3000000
000C30C3000000
000C30C3000000
000FFFFF000000
000FFFFF000000
000C30C3000000
000C30C3000000
000C30C3000000
000C30C3000000
FFFFFFFFFFFFC0
FFFFFFFFFFFFC0
C30C30C30C30C0
C30C30C30C30C0
C30C30C30C30C0
C30C30C30C30C0
FFFFFFFFFFFFC0
FFFFFFFFFFFFC0
000C30C3000000
000C30C3000000
000C30C3000000
000C30C3000000
000FFFFF000000
000FFFFF000000
000C30C3000000
000C30C3000000
000C30C3000000
000C30C3000000
000FFFFF000000
000FFFFF000000
000C30C3000000
000C30C3000000
000C30C3000000
000C30C3000000
000FFFFF000000
000FFFFF000000
000C30C3000000
000C30C3000000
000C30C3000000
000C30C3000000
000FFFFF000000
000FFFFF000000
ENDCHAR
STARTCHAR 0067
ENCODING 103
SWIDTH 967 0
DWIDTH 60 0
BBX 50 56 0 -12
BITMAP
03FFFFFFFFF000
03FFFFFFFFF000
030C30C30C3000
030C30C30C3000
030C30C30C3000
030C30C30C3000
FFFFFFFFFFFFC0
FFFFFFFFFFFFC0
C30C30030C30C0
C30C30030C30C0
C30C30030C30C0
C30C30030C30C0
FFFFF003FFFFC0
FFFFF003FFFFC0
C30C30030C30C0
C30C30030C30C0
C30C30030C30C0
C30C30030C30C0
FFFFF003FFFFC0
FFFFF003FFFFC0
C30C30030C30C0
C30C30030C30C0
C30C30030C30C0
C30C30030C30C0
FFFFF003FFFFC0
FFFFF003FFFFC0
C30C30030C30C0
C30C30030C30C0
C30C30030C30C0
C30C30030C30C0
FFFFFFFFFFFFC0
FFFFFFFFFFFFC0
030C30C30C30C0
030C30C30C30C0
030C30C30C30C0
030C30C30C30C0
03FFFFFFFFFFC0
03FFFFFFFFFFC0
000000030C30C0
000000030C30C0
000000030C30C0
000000030C30C0
FFFFF003FFFFC0
FFFFF003FFFFC0
C30C30030C30C0
C30C30030C30C0
C30C30030C30C0
C30C30030C30C0
FFFFFFFFFFFFC0
FFFFFFFFFFFFC0
030C30C30C3000
030C30C30C3000
030C30C30C3000
030C30C30C3000
03FFFFFFFFF000
03FFFFFFFFF000
ENDCHAR
STARTCHAR 0068
ENCODING 104
SWIDTH 967 0
DWIDTH 60 0
BBX 50 50 0 0
BITMAP
FFFFF000000000
FFFFF000000000
C30C3000000000
C30C3000000000
C30C3000000000
C30C3000000000
FFFFF000000000
FFFFF000000000
C30C3000000000
C30C3000000000
C30C3000000000
C30C3000000000
FFFFF000000000
FFFFF000000000
C30C3000000000
C30C3000000000
C30C3000000000
C30C3000000000
FFFFFFFFFFF000
FFFFFFFFFFF000
C30C30C30C3000
C30C30C30C3000
C30C30C30C3000
C30C30C30C3000
FFFFFFFFFFFFC0
FFFFFFFFFFFFC0
C30C30030C30C0
C30C30030C30C0
C30C30030C30C0
C30C30030C30C0
FFFFF003FFFFC0
FFFFF003FFFFC0
C30C30030C30C0
C30C30030C30C0
C30C30030C30C0
C30C30030C30C0
FFFFF003FFFFC0
FFFFF003FFFFC0
C30C30030C30C0
C30C30030C30C0
C30C30030C30C0
C30C30030C30C0
FFFFF003FFFFC0
FFFFF003FFFFC0
C30C30030C30C0
C30C30030C30C0
C30C30030C30C0
C30C30030C30C0
FFFFF003FFFFC0
FFFFF003FFFFC0
ENDCHAR
STARTCHAR 0069
ENCODING 105
SWIDTH 483 0
DWIDTH 30 0
BBX 20 50 0 0
BITMAP
FFFFF0
FFFFF0
C30C30
C30C30
C30C30
C30C30
FFFFF0
FFFFF0
C30C30
C30C30
C30C30
C30C30
FFFFF0
FFFFF0
000000
000000
000000
000000
000000
000000
000000
000000
000000
000000
FFFFF0
FFFFF0
C30C30
C30C30
C30C30
C30C30
FFFFF0
FFFFF0
C30C30
C30C30
C30C30
C30C30
FFFFF0
FFFFF0
C30C30
C30C30
C30C30
C30C30
FFFFF0
FFFFF0
C30C30
C30C30
C30C30
C30C30
FFFFF0
FFFFF0
ENDCHAR
STARTCHAR 006A
ENCODING 106
SWIDTH 967 0
DWIDTH 60 0
BBX 50 62 0 -12
BITMAP
00000003FFFFC0
00000003FFFFC0
000000030C30C0
000000030C30C0
000000030C30C0
000000030C30C0
00000003FFFFC0
00000003FFFFC0
000000030C30C0
000000030C30C0
000000030C30C0
000000030C30C0
00000003FFFFC0
00000003FFFFC0
00000000000000
00000000000000
00000000000000
00000000000000
00000000000000
00000000000000
00000000000000
00000000000000
00000000000000
00000000000000
00000003FFFFC0
00000003FFFFC0
000000030C30C0
000000030C30C0
000000030C30C0
000000030C30C0
00000003FFFFC0
00000003FFFFC0
000000030C30C0
000000030C30C0
000000030C30C0
000000030C30C0
00000003FFFFC0
00000003FFFFC0
000000030C30C0
000000030C30C0
000000030C30C0
000000030C30C0
FFFFF003FFFFC0
FFFFF003FFFFC0
C30C30030C30C0
C30C30030C30C0
C30C30030C30C0
C30C30030C30C0
FFFFF003FFFFC0
FFFFF003FFFFC0
C30C30030C30C0
C30C30030C30C0
C30C30030C30C0
C30C30030C30C0
FFFFFFFFFFFFC0
FFFFFFFFFFFFC0
030C30C30C3000
030C30C30C3000
030C30C30C3000
030C30C30C3000
03FFFFFFFFF000
03FFFFFFFFF000
ENDCHAR
STARTCHAR 006B
ENCODING 107
SWIDTH 967 0
DWIDTH 60 0
BBX 50 50 0 0
BITMAP
FFFFF000000000
FFFFF000000000
C30C3000000000
C30C3000000000
C30C3000000000
C30C3000000000
FFFFF000000000
FFFFF000000000
C30C3000000000
C30C3000000000
C30C3000000000
C30C3000000000
FFFFF000000000
FFFFF000000000
C30C3000000000
C30C3000000000
C30C3000000000
C30C3000000000
FFFFF003FFFFC0
FFFFF003FFFFC0
C30C30030C30C0
C30C30030C30C0
C30C30030C30C0
C30C30030C30C0
FFFFF003FFFFC0
FFFFF003FFFFC0
C30C30030C3000
C30C30030C3000
C30C30030C3000
C30C30030C3000
FFFFFFFFFFF000
FFFFFFFFFFF000
C30C30C30C0000
C30C30C30C0000
C30C30C30C0000
C30C30C30C0000
FFFFFFFFFFF000
FFFFFFFFFFF000
C30C30030C3000
C30C30030C3000
C30C30030C3000
C30C30030C3000
FFFFF003FFFFC0
FFFFF003FFFFC0
C30C30030C30C0
C30C30030C30C0
C30C30030C30C0
C30C30030C30C0
FFFFF003FFFFC0
FFFFF003FFFFC0
ENDCHAR
STARTCHAR 006C
ENCODING 108
SWIDTH 677 0
DWIDTH 42 0
BBX 32 50 0 0
BITMAP
FFFFF000
FFFFF000
C30C3000
C30C3000
C30C3000
C30C3000
FFFFF000
FFFFF000
C30C3000
C30C3000
C30C3000
C30C3000
FFFFF000
FFFFF000
C30C3000
C30C3000
C30C3000
C30C3000
FFFFF000
FFFFF000
C30C3000
C30C3000
C30C3000
C30C3000
FFFFF000
FFFFF000
C30C3000
C30C3000
C30C3000
C30C3000
FFFFF000
FFFFF000
C30C3000
C30C3000
C30C3000
C30C3000
FFFFF000
FFFFF000
C30C3000
C30C3000
C30C3000
C30C3000
FFFFFFFF
FFFFFFFF
C30C30C3
C30C30C3
C30C30C3
C30C30C3
FFFFFFFF
FFFFFFFF
ENDCHAR
STARTCHAR 006D
ENCODING 109
SWIDTH 1451 0
DWIDTH 90 0
BBX 80 44 0 0
BITMAP
FFFFF0FFFFFFC3FFFFC0
FFFFF0FFFFFFC3FFFFC0
C30C30C30C30C30C30C0
C30C30C30C30C30C30C0
C30C30C30C30C30C30C0
C30C30C30C30C30C30C0
FFFFFFFFFFFFFFFFFFFF
FFFFFFFFFFFFFFFFFFFF
C30C30C30C30C30C30C3
C30C30C30C30C30C30C3
C30C30C30C30C30C30C3
C30C30C30C30C30C30C3
FFFFFFFFFFFFFFFFFFFF
FFFFFFFFFFFFFFFFFFFF
C30C30030C30C00C30C3
C30C30030C30C00C30C3
C30C30030C30C00C30C3
C30C30030C30C00C30C3
FFFFF003FFFFC00FFFFF
FFFFF003FFFFC00FFFFF
C30C30030C30C00C30C3
C30C30030C30C00C30C3
C30C30030C30C00C30C3
C30C30030C30C00C30C3
FFFFF003FFFFC00FFFFF
FFFFF003FFFFC00FFFFF
C30C30030C30C00C30C3
C30C30030C30C00C30C3
C30C30030C30C00C30C3
C30C30030C30C00C30C3
FFFFF003FFFFC00FFFFF
FFFFF003FFFFC00FFFFF
C30C30030C30C00C30C3
C30C30030C30C00C30C3
C30C30030C30C00C30C3
C30C30030C30C00C30C3
FFFFF003FFFFC00FFFFF
FFFFF003FFFFC00FFFFF
C30C30030C30C00C30C3
C30C30030C30C00C30C3
C30C30030C30C00C30C3
C30C30030C30C00C30C3
FFFFF003FFFFC00FFFFF
FFFFF003FFFFC00FFFFF
ENDCHAR
STARTCHAR 006E
ENCODING 110
SWIDTH 967 0
DWIDTH 60 0
BBX 50 44 0 0
BITMAP
FFFFF0FFFFF000
FFFFF0FFFFF000
C30C30C30C3000
C30C30C30C3000
C30C30C30C3000
C30C30C30C3000
FFFFFFFFFFFFC0
FFFFFFFFFFFFC0
C30C30C30C30C0
C30C30C30C30C0
C30C30C30C30C0
C30C30C30C30C0
FFFFFFFFFFFFC0
FFFFFFFFFFFFC0
C30C30C30C30C0
C30C30C30C30C0
C30C30C30C30C0
C30C30C30C30C0
FFFFFFC3FFFFC0
FFFFFFC3FFFFC0
C30C30030C30C0
C30C30030C30C0
C30C30030C30C0
C30C30030C30C0
FFFFF003FFFFC0
FFFFF003FFFFC0
C30C30030C30C0
C30C30030C30C0
C30C30030C30C0
C30C30030C30C0
FFFFF003FFFFC0
FFFFF003FFFFC0
C30C30030C30C0
C30C30030C30C0
C30C30030C30C0
C30C30030C30C0
FFFFF003FFFFC0
FFFFF003FFFFC0
C30C30030C30C0
C30C30030C30C0
C30C30030C30C0
C30C30030C30C0
FFFFF003FFFFC0
FFFFF003FFFFC0
ENDCHAR
STARTCHAR 006F
ENCODING 111
SWIDTH 967 0
DWIDTH 60 0
BBX 50 44 0 0
BITMAP
03FFFFFFFFF000
03FFFFFFFFF000
030C30C30C3000
030C30C30C3000
030C30C30C3000
030C30C30C3000
FFFFFFFFFFFFC0
FFFFFFFFFFFFC0
C30C30030C30C0
C30C30030C30C0
C30C30030C30C0
C30C30030C30C0
FFFFF003FFFFC0
FFFFF003FFFFC0
C30C30030C30C0
C30C30030C30C0
C30C30030C30C0
C30C30030C30C0
FFFFF003FFFFC0
FFFFF003FFFFC0
C30C30030C30C0
C30C30030C30C0
C30C30030C30C0
C30C30030C30C0
FFFFF003FFFFC0
FFFFF003FFFFC0
C30C30030C30C0
C30C30030C30C0
C30C30030C30C0
C30C30030C30C0
FFFFF003FFFFC0
FFFFF003FFFFC0
C30C30030C30C0
C30C30030C30C0
C30C30030C30C0
C30C30030C30C0
FFFFFFFFFFFFC0
FFFFFFFFFFFFC0
030C30C30C3000
030C30C30C3000
030C30C30C3000
030C30C30C3000
03FFFFFFFFF000
03FFFFFFFFF000
ENDCHAR
STARTCHAR 0070
ENCODING 112
SWIDTH 967 0
DWIDTH 60 0
BBX 50 56 0 -12
BITMAP
FFFFFFFFFFF000
FFFFFFFFFFF000
C30C30C30C3000
C30C30C30C3000
C30C30C30C3000
C30C30C30C3000
FFFFFFFFFFFFC0
FFFFFFFFFFFFC0
C30C30030C30C0
C30C30030C30C0
C30C30030C30C0
C30C30030C30C0
FFFFF003FFFFC0
FFFFF003FFFFC0
C30C30030C30C0
C30C30030C30C0
C30C30030C30C0
C30C30030C30C0
FFFFF003FFFFC0
FFFFF003FFFFC0
C30C30030C30C0
C30C30030C30C0
C30C30030C30C0
C30C30030C30C0
FFFFFFFFFFFFC0
FFFFFFFFFFFFC0
C30C30C30C30C0
C30C30C30C30C0
C30C30C30C30C0
C30C30C30C30C0
FFFFFFFFFFFFC0
FFFFFFFFFFFFC0
C30C30C30C3000
C30C30C30C3000
C30C30C30C3000
C30C30C30C3000
FFFFFFFFFFF000
FFFFFFFFFFF000
C30C3000000000
C30C3000000000
C30C3000000000
C30C3000000000
FFFFF000000000
FFFFF000000000
C30C3000000000
C30C3000000000
C30C3000000000
C30C3000000000
FFFFF000000000
FFFFF000000000
C30C3000000000
C30C3000000000
C30C3000000000
C30C3000000000
FFFFF000000000
FFFFF000000000
ENDCHAR
STARTCHAR 0071
ENCODING 113
SWIDTH 967 0
DWIDTH 60 0
BBX 50 56 0 -12
BITMAP
03FFFFFFFFFFC0
03FFFFFFFFFFC0
030C30C30C30C0
030C30C30C30C0
030C30C30C30C0
030C30C30C30C0
FFFFFFFFFFFFC0
FFFFFFFFFFFFC0
C30C30030C30C0
C30C30030C30C0
C30C30030C30C0
C30C30030C30C0
FFFFF003FFFFC0
FFFFF003FFFFC0
C30C30030C30C0
C30C30030C30C0
C30C30030C30C0
C30C30030C30C0
FFFFF003FFFFC0
FFFFF003FFFFC0
C30C30030C30C0
C30C30030C30C0
C30C30030C30C0
C30C30030C30C0
FFFFFFFFFFFFC0
FFFFFFFFFFFFC0
C30C30C30C30C0
C30C30C30C30C0
C30C30C30C30C0
C30C30C30C30C0
FFFFFFFFFFFFC0
FFFFFFFFFFFFC0
030C30C30C30C0
030C30C30C30C0
030C30C30C30C0
030C30C30C30C0
03FFFFFFFFFFC0
03FFFFFFFFFFC0
000000030C30C0
000000030C30C0
000000030C30C0
000000030C30C0
00000003FFFFC0
00000003FFFFC0
000000030C30C0
000000030C30C0
000000030C30C0
000000030C30C0
00000003FFFFC0
00000003FFFFC0
000000030C30C0
000000030C30C0
000000030C30C0
000000030C30C0
00000003FFFFC0
00000003FFFFC0
ENDCHAR
STARTCHAR 0072
ENCODING 114
SWIDTH 967 0
DWIDTH 60 0
BBX 50 44 0 0
BITMAP
FFFFFFFFFFFFC0
FFFFFFFFFFFFC0
C30C30C30C30C0
C30C30C30C30C0
C30C30C30C30C0
C30C30C30C30C0
FFFFFFFFFFFFC0
FFFFFFFFFFFFC0
C30C30030C30C0
C30C30030C30C0
C30C30030C30C0
C30C30030C30C0
FFFFF003FFFFC0
FFFFF003FFFFC0
C30C3000000000
C30C3000000000
C30C3000000000
C30C3000000000
FFFFF000000000
FFFFF000000000
C30C3000000000
C30C3000000000
C30C3000000000
C30C3000000000
FFFFF000000000
FFFFF000000000
C30C3000000000
C30C3000000000
C30C3000000000
C30C3000000000
FFFFF000000000
FFFFF000000000
C30C3000000000
C30C3000000000
C30C3000000000
C30C3000000000
FFFFF000000000
FFFFF000000000
C30C3000000000
C30C3000000000
C30C3000000000
C30C3000000000
FFFFF000000000
FFFFF000000000
ENDCHAR
STARTCHAR 0073
ENCODING 115
SWIDTH 967 0
DWIDTH 60 0
BBX 50 44 0 0
BITMAP
03FFFFFFFFF000
03FFFFFFFFF000
030C30C30C3000
030C30C30C3000
030C30C30C3000
030C30C30C3000
FFFFFFFFFFFFC0
FFFFFFFFFFFFC0
C30C30030C30C0
C30C30030C30C0
C30C30030C30C0
C30C30030C30C0
FFFFF003FFFFC0
FFFFF003FFFFC0
C30C3000000000
C30C3000000000
C30C3000000000
C30C3000000000
FFFFFFFFFFFFC0
FFFFFFFFFFFFC0
C30C30C30C30C0
C30C30C30C30C0
C30C30C30C30C0
C30C30C30C30C0
FFFFFFFFFFFFC0
FFFFFFFFFFFFC0
000000030C30C0
000000030C30C0
000000030C30C0
000000030C30C0
FFFFF003FFFFC0
FFFFF003FFFFC0
C30C30030C30C0
C30C30030C30C0
C30C30030C30C0
C30C30030C30C0
FFFFFFFFFFFFC0
FFFFFFFFFFFFC0
030C30C30C3000
030C30C30C3000
030C30C30C3000
030C30C30C3000
03FFFFFFFFF000
03FFFFFFFFF000
ENDCHAR
STARTCHAR 0074
ENCODING 116
SWIDTH 967 0
DWIDTH 60 0
BBX 50 50 0 0
BITMAP
03FFFFC0000000
03FFFFC0000000
030C30C0000000
030C30C0000000
030C30C0000000
030C30C0000000
03FFFFC0000000
03FFFFC0000000
030C30C0000000
030C30C0000000
030C30C0000000
030C30C0000000
FFFFFFFFFFFFC0
FFFFFFFFFFFFC0
C30C30C30C30C0
C30C30C30C30C0
C30C30C30C30C0
C30C30C30C30C0
FFFFFFFFFFFFC0
FFFFFFFFFFFFC0
030C30C0000000
030C30C0000000
030C30C0000000
030C30C0000000
03FFFFC0000000
03FFFFC0000000
030C30C0000000
030C30C0000000
030C30C0000000
030C30C0000000
03FFFFC00FFFC0
03FFFFC00FFFC0
030C30C00C30C0
030C30C00C30C0
030C30C00C30C0
030C30C00C30C0
03FFFFC00FFFC0
03FFFFC00FFFC0
030C30C00C30C0
030C30C00C30C0
030C30C00C30C0
030C30C00C30C0
03FFFFFFFFFFC0
03FFFFFFFFFFC0
000C30C30C3000
000C30C30C3000
000C30C30C3000
000C30C30C3000
000FFFFFFFF000
000FFFFFFFF000
ENDCHAR
STARTCHAR 0075
ENCODING 117
SWIDTH 967 0
DWIDTH 60 0
BBX 50 44 0 0
BITMAP
FFFFF003FFFFC0
FFFFF003FFFFC0
C30C30030C30C0
C30C30030C30C0
C30C30030C30C0
C30C30030C30C0
FFFFF003FFFFC0
FFFFF003FFFFC0
C30C30030C30C0
C30C30030C30C0
C30C30030C30C0
C30C30030C30C0
FFFFF003FFFFC0
FFFFF003FFFFC0
C30C30030C30C0
C30C30030C30C0
C30C30030C30C0
C30C30030C30C0
FFFFF003FFFFC0
FFFFF003FFFFC0
C30C30030C30C0
C30C30030C30C0
C30C30030C30C0
C30C30030C30C0
FFFFF003FFFFC0
FFFFF003FFFFC0
C30C30030C30C0
C30C30030C30C0
C30C30030C30C0
C30C30030C30C0
FFFFF003FFFFC0
FFFFF003FFFFC0
C30C30030C30C0
C30C30030C30C0
C30C30030C30C0
C30C30030C30C0
FFFFFFFFFFFFC0
FFFFFFFFFFFFC0
030C30C30C30C0
030C30C30C30C0
030C30C30C30C0
030C30C30C30C0
03FFFFFFFFFFC0
03FFFFFFFFFFC0
ENDCHAR
STARTCHAR 0076
ENCODING 118
SWIDTH 967 0
DWIDTH 60 0
BBX 50 44 0 0
BITMAP
FFFFF003FFFFC0
FFFFF003FFFFC0
C30C30030C30C0
C30C30030C30C0
C30C30030C30C0
C30C30030C30C0
FFFFF003FFFFC0
FFFFF003FFFFC0
C30C30030C30C0
C30C30030C30C0
C30C30030C30C0
C30C30030C30C0
FFFFF003FFFFC0
FFFFF003FFFFC0
C30C30030C30C0
C30C30030C30C0
C30C30030C30C0
C30C30030C30C0
FFFFF003FFFFC0
FFFFF003FFFFC0
C30C30030C30C0
C30C30030C30C0
C30C30030C30C0
C30C30030C30C0
FFFFF003FFFFC0
FFFFF003FFFFC0
C30C30030C30C0
C30C30030C30C0
C30C30030C30C0
C30C30030C30C0
FFFFF003FFFFC0
FFFFF003FFFFC0
030C30030C3000
030C30030C3000
030C30030C3000
030C30030C3000
03FFFFFFFFF000
03FFFFFFFFF000
000C30C30C0000
000C30C30C0000
000C30C30C0000
000C30C30C0000
000FFFFFFC0000
000FFFFFFC0000
ENDCHAR
STARTCHAR 0077
ENCODING 119
SWIDTH 1064 0
DWIDTH 66 0
BBX 56 44 0 0
BITMAP
FFFFF0000FFFFF
FFFFF0000FFFFF
C30C30000C30C3
C30C30000C30C3
C30C30000C30C3
C30C30000C30C3
FFFFF0000FFFFF
FFFFF0000FFFFF
C30C30000C30C3
C30C30000C30C3
C30C30000C30C3
C30C30000C30C3
FFFFF0FF0FFFFF
FFFFF0FF0FFFFF
C30C30C30C30C3
C30C30C30C30C3
C30C30C30C30C3
C30C30C30C30C3
FFFFFFFFFFFFFF
FFFFFFFFFFFFFF
C30C30C30C30C3
C30C30C30C30C3
C30C30C30C30C3
C30C30C30C30C3
FFFFFFFFFFFFFF
FFFFFFFFFFFFFF
C30C30C30C30C3
C30C30C30C30C3
C30C30C30C30C3
C30C30C30C30C3
FFFFFFC3FFFFFF
FFFFFFC3FFFFFF
C30C30000C30C3
C30C30000C30C3
C30C30000C30C3
C30C30000C30C3
FFFFF0000FFFFF
FFFFF0000FFFFF
030C30000C30C0
030C30000C30C0
030C30000C30C0
030C30000C30C0
03FFF0000FFFC0
03FFF0000FFFC0
ENDCHAR
STARTCHAR 0078
ENCODING 120
SWIDTH 967 0
DWIDTH 60 0
BBX 50 44 0 0
BITMAP
FFFFF003FFFFC0
FFFFF003FFFFC0
C30C30030C30C0
C30C30030C30C0
C30C30030C30C0
C30C30030C30C0
FFFFF003FFFFC0
FFFFF003FFFFC0
C30C30030C30C0
C30C30030C30C0
C30C30030C30C0
C30C30030C30C0
FFFFF003FFFFC0
FFFFF003FFFFC0
030C30030C3000
030C30030C3000
030C30030C3000
030C30030C3000
03FFFFFFFFF000
03FFFFFFFFF000
000C30C30C0000
000C30C30C0000
000C30C30C0000
000C30C30C0000
03FFFFFFFFF000
03FFFFFFFFF000
030C30030C3000
030C30030C3000
030C30030C3000
030C30030C3000
FFFFF003FFFFC0
FFFFF003FFFFC0
C30C30030C30C0
C30C30030C30C0
C30C30030C30C0
C30C30030C30C0
FFFFF003FFFFC0
FFFFF003FFFFC0
C30C30030C30C0
C30C30030C30C0
C30C30030C30C0
C30C30030C30C0
FFFFF003FFFFC0
FFFFF003FFFFC0
ENDCHAR
STARTCHAR 0079
ENCODING 121
SWIDTH 967 0
DWIDTH 60 0
BBX 50 56 0 -12
BITMAP
FFFFF003FFFFC0
FFFFF003FFFFC0
C30C30030C30C0
C30C30030C30C0
C30C30030C30C0
C30C30030C30C0
FFFFF003FFFFC0
FFFFF003FFFFC0
C30C30030C30C0
C30C30030C30C0
C30C30030C30C0
C30C30030C30C0
FFFFF003FFFFC0
FFFFF003FFFFC0
C30C30030C30C0
C30C30030C30C0
C30C30030C30C0
C30C30030C30C0
FFFFFFFFFFFFC0
FFFFFFFFFFFFC0
030C30C30C30C0
030C30C30C30C0
030C30C30C30C0
030C30C30C30C0
03FFFFFFFFFFC0
03FFFFFFFFFFC0
000000030C30C0
000000030C30C0
000000030C30C0
000000030C30C0
00000003FFFFC0
00000003FFFFC0
000000030C30C0
000000030C30C0
000000030C30C0
000000030C30C0
FFFFF003FFFFC0
FFFFF003FFFFC0
C30C30030C30C0
C30C30030C30C0
C30C30030C30C0
C30C30030C30C0
FFFFF003FFFFC0
FFFFF003FFFFC0
C30C30030C30C0
C30C30030C30C0
C30C30030C30C0
C30C30030C30C0
FFFFFFFFFFFFC0
FFFFFFFFFFFFC0
030C30C30C3000
030C30C30C3000
030C30C30C3000
030C30C30C3000
03FFFFFFFFF000
03FFFFFFFFF000
ENDCHAR
STARTCHAR 007A
ENCODING 122
SWIDTH 967 0
DWIDTH 60 0
BBX 50 44 0 0
BITMAP
FFFFFFFFFFFFC0
FFFFFFFFFFFFC0
C30C30C30C30C0
C30C30C30C30C0
C30C30C30C30C0
C30C30C30C30C0
FFFFFFFFFFFFC0
FFFFFFFFFFFFC0
000000030C30C0
000000030C30C0
000000030C30C0
000000030C30C0
000000FFFFFFC0
000000FFFFFFC0
000000C30C3000
000000C30C3000
000000C30C3000
000000C30C3000
00003FFFFFF000
00003FFFFFF000
000030C30C0000
000030C30C0000
000030C30C0000
000030C30C0000
000FFFFFFC0000
000FFFFFFC0000
000C30C3000000
000C30C3000000
000C30C3000000
000C30C3000000
03FFFFFF000000
03FFFFFF000000
030C30C0000000
030C30C0000000
030C30C0000000
030C30C0000000
FFFFFFFFFFFFC0
FFFFFFFFFFFFC0
C30C30C30C30C0
C30C30C30C30C0
C30C30C30C30C0
C30C30C30C30C0
FFFFFFFFFFFFC0
FFFFFFFFFFFFC0
ENDCHAR
STARTCHAR 007B
ENCODING 123
SWIDTH 677 0
DWIDTH 42 0
BBX 32 50 0 0
BITMAP
000FFFFF
000FFFFF
000C30C3
000C30C3
000C30C3
000C30C3
03FFFFFF
03FFFFFF
030C3000
030C3000
030C3000
030C3000
03FFF000
03FFF000
030C3000
030C3000
030C3000
030C3000
FFFFF000
FFFFF000
C30C0000
C30C0000
C30C0000
C30C0000
FFFFF000
FFFFF000
030C3000
030C3000
030C3000
030C3000
03FFF000
03FFF000
030C3000
030C3000
030C3000
030C3000
03FFF000
03FFF000
030C3000
030C3000
030C3000
030C3000
03FFFFFF
03FFFFFF
000C30C3
000C30C3
000C30C3
000C30C3
000FFFFF
000FFFFF
ENDCHAR
STARTCHAR 007C
ENCODING 124
SWIDTH 387 0
DWIDTH 24 0
BBX 14 50 0 0
BITMAP
FFFC
FFFC
C30C
C30C
C30C
C30C
FFFC
FFFC
C30C
C30C
C30C
C30C
FFFC
FFFC
C30C
C30C
C30C
C30C
FFFC
FFFC
C30C
C30C
C30C
C30C
FFFC
FFFC
C30C
C30C
C30C
C30C
FFFC
FFFC
C30C
C30C
C30C
C30C
FFFC
FFFC
C30C
C30C
C30C
C30C
FFFC
FFFC
C30C
C30C
C30C
C30C
FFFC
FFFC
ENDCHAR
STARTCHAR 007D
ENCODING 125
SWIDTH 677 0
DWIDTH 42 0
BBX 32 50 0 0
BITMAP
FFFFF000
FFFFF000
C30C3000
C30C3000
C30C3000
C30C3000
FFFFFFC0
FFFFFFC0
000C30C0
000C30C0
000C30C0
000C30C0
000FFFC0
000FFFC0
000C30C0
000C30C0
000C30C0
000C30C0
000FFFFF
000FFFFF
000030C3
000030C3
000030C3
000030C3
000FFFFF
000FFFFF
000C30C0
000C30C0
000C30C0
000C30C0
000FFFC0
000FFFC0
000C30C0
000C30C0
000C30C0
000C30C0
000FFFC0
000FFFC0
000C30C0
000C30C0
000C30C0
000C30C0
FFFFFFC0
FFFFFFC0
C30C3000
C30C3000
C30C3000
C30C3000
FFFFF000
FFFFF000
ENDCHAR
STARTCHAR 007E
ENCODING 126
SWIDTH 967 0
DWIDTH 60 0
BBX 50 26 0 24
BITMAP
00003FC0003FC0
00003FC0003FC0
000030C00030C0
000030C00030C0
000030C00030C0
000030C00030C0
000FFFFF0FFFC0
000FFFFF0FFFC0
000C30C30C30C0
000C30C30C30C0
000C30C30C30C0
000C30C30C30C0
03FFFFFFFFFFC0
03FFFFFFFFFFC0
030C30C30C3000
030C30C30C3000
030C30C30C3000
030C30C30C3000
FFFFF0FFFFF000
FFFFF0FFFFF000
C30C00030C0000
C30C00030C0000
C30C00030C0000
C30C00030C0000
FFFC0003FC0000
FFFC0003FC0000
ENDCHAR
STARTCHAR 00A0
ENCODING 160
SWIDTH 500 0
DWIDTH 31 0
BBX 0 0 0 0
BITMAP
ENDCHAR
STARTCHAR 00A1
ENCODING 161
SWIDTH 500 0
DWIDTH 31 0
BBX 0 0 0 0
BITMAP
ENDCHAR
STARTCHAR 00A2
ENCODING 162
SWIDTH 500 0
DWIDTH 31 0
BBX 0 0 0 0
BITMAP
ENDCHAR
STARTCHAR 00A3
ENCODING 163
SWIDTH 500 0
DWIDTH 31 0
BBX 0 0 0 0
BITMAP
ENDCHAR
STARTCHAR 00A4
ENCODING 164
SWIDTH 500 0
DWIDTH 31 0
BBX 0 0 0 0
BITMAP
ENDCHAR
STARTCHAR 00A5
ENCODING 165
SWIDTH 967 0
DWIDTH 60 0
BBX 50 50 0 0
BITMAP
FFFFF003FFFFC0
FFFFF003FFFFC0
C30C30030C30C0
C30C30030C30C0
C30C30030C30C0
C30C30030C30C0
FFFFF003FFFFC0
FFFFF003FFFFC0
C30C30030C30C0
C30C30030C30C0
C30C30030C30C0
C30C30030C30C0
FFFFF003FFFFC0
FFFFF003FFFFC0
C30C30030C30C0
C30C30030C30C0
C30C30030C30C0
C30C30030C30C0
FFFFFFFFFFFFC0
FFFFFFFFFFFFC0
030C30C30C3000
030C30C30C3000
030C30C30C3000
030C30C30C3000
03FFFFFFFFF000
03FFFFFFFFF000
000030C3000000
000030C3000000
000030C3000000
000030C3000000
03FFFFFFFFF000
03FFFFFFFFF000
030C30C30C3000
030C30C30C3000
030C30C30C3000
030C30C30C3000
03FFFFFFFFF000
03FFFFFFFFF000
000030C3000000
000030C3000000
000030C3000000
000030C3000000
00003FFF000000
00003FFF000000
000030C3000000
000030C3000000
000030C3000000
000030C3000000
00003FFF000000
00003FFF000000
ENDCHAR
STARTCHAR 00A6
ENCODING 166
SWIDTH 500 0
DWIDTH 31 0
BBX 0 0 0 0
BITMAP
ENDCHAR
STARTCHAR 00A7
ENCODING 167
SWIDTH 500 0
DWIDTH 31 0
BBX 0 0 0 0
BITMAP
ENDCHAR
STARTCHAR 00A8
ENCODING 168
SWIDTH 500 0
DWIDTH 31 0
BBX 0 0 0 0
BITMAP
ENDCHAR
STARTCHAR 00A9
ENCODING 169
SWIDTH 500 0
DWIDTH 31 0
BBX 0 0 0 0
BITMAP
ENDCHAR
STARTCHAR 00AA
ENCODING 170
SWIDTH 500 0
DWIDTH 31 0
BBX 0 0 0 0
BITMAP
ENDCHAR
STARTCHAR 00AB
ENCODING 171
SWIDTH 500 0
DWIDTH 31 0
BBX 0 0 0 0
BITMAP
ENDCHAR
STARTCHAR 00AC
ENCODING 172
SWIDTH 500 0
DWIDTH 31 0
BBX 0 0 0 0
BITMAP
ENDCHAR
STARTCHAR 00AD
ENCODING 173
SWIDTH 500 0
DWIDTH 31 0
BBX 0 0 0 0
BITMAP
ENDCHAR
STARTCHAR 00AE
ENCODING 174
SWIDTH 500 0
DWIDTH 31 0
BBX 0 0 0 0
BITMAP
ENDCHAR
STARTCHAR 00AF
ENCODING 175
SWIDTH 500 0
DWIDTH 31 0
BBX 0 0 0 0
BITMAP
ENDCHAR
STARTCHAR 00B0
ENCODING 176
SWIDTH 500 0
DWIDTH 31 0
BBX 0 0 0 0
BITMAP
ENDCHAR
STARTCHAR 00B1
ENCODING 177
SWIDTH 500 0
DWIDTH 31 0
BBX 0 0 0 0
BITMAP
ENDCHAR
STARTCHAR 00B2
ENCODING 178
SWIDTH 500 0
DWIDTH 31 0
BBX 0 0 0 0
BITMAP
ENDCHAR
STARTCHAR 00B3
ENCODING 179
SWIDTH 500 0
DWIDTH 31 0
BBX 0 0 0 0
BITMAP
ENDCHAR
STARTCHAR 00B4
ENCODING 180
SWIDTH 500 0
DWIDTH 31 0
BBX 0 0 0 0
BITMAP
ENDCHAR
STARTCHAR 00B5
ENCODING 181
SWIDTH 500 0
DWIDTH 31 0
BBX 0 0 0 0
BITMAP
ENDCHAR
STARTCHAR 00B6
ENCODING 182
SWIDTH 500 0
DWIDTH 31 0
BBX 0 0 0 0
BITMAP
ENDCHAR
STARTCHAR 00B7
ENCODING 183
SWIDTH 500 0
DWIDTH 31 0
BBX 0 0 0 0
BITMAP
ENDCHAR
STARTCHAR 00B8
ENCODING 184
SWIDTH 500 0
DWIDTH 31 0
BBX 0 0 0 0
BITMAP
ENDCHAR
STARTCHAR 00B9
ENCODING 185
SWIDTH 500 0
DWIDTH 31 0
BBX 0 0 0 0
BITMAP
ENDCHAR
STARTCHAR 00BA
ENCODING 186
SWIDTH 500 0
DWIDTH 31 0
BBX 0 0 0 0
BITMAP
ENDCHAR
STARTCHAR 00BB
ENCODING 187
SWIDTH 500 0
DWIDTH 31 0
BBX 0 0 0 0
BITMAP
ENDCHAR
STARTCHAR 00BC
ENCODING 188
SWIDTH 500 0
DWIDTH 31 0
BBX 0 0 0 0
BITMAP
ENDCHAR
STARTCHAR 00BD
ENCODING 189
SWIDTH 500 0
DWIDTH 31 0
BBX 0 0 0 0
BITMAP
ENDCHAR
STARTCHAR 00BE
ENCODING 190
SWIDTH 500 0
DWIDTH 31 0
BBX 0 0 0 0
BITMAP
ENDCHAR
STARTCHAR 00BF
ENCODING 191
SWIDTH 500 0
DWIDTH 31 0
BBX 0 0 0 0
BITMAP
ENDCHAR
STARTCHAR 00C0
ENCODING 192
SWIDTH 500 0
DWIDTH 31 0
BBX 0 0 0 0
BITMAP
ENDCHAR
STARTCHAR 00C1
ENCODING 193
SWIDTH 500 0
DWIDTH 31 0
BBX 0 0 0 0
BITMAP
ENDCHAR
STARTCHAR 00C2
ENCODING 194
SWIDTH 500 0
DWIDTH 31 0
BBX 0 0 0 0
BITMAP
ENDCHAR
STARTCHAR 00C3
ENCODING 195
SWIDTH 500 0
DWIDTH 31 0
BBX 0 0 0 0
BITMAP
ENDCHAR
STARTCHAR 00C4
ENCODING 196
SWIDTH 500 0
DWIDTH 31 0
BBX 0 0 0 0
BITMAP
ENDCHAR
STARTCHAR 00C5
ENCODING 197
SWIDTH 500 0
DWIDTH 31 0
BBX 0 0 0 0
BITMAP
ENDCHAR
STARTCHAR 00C6
ENCODING 198
SWIDTH 500 0
DWIDTH 31 0
BBX 0 0 0 0
BITMAP
ENDCHAR
STARTCHAR 00C7
ENCODING 199
SWIDTH 500 0
DWIDTH 31 0
BBX 0 0 0 0
BITMAP
ENDCHAR
STARTCHAR 00C8
ENCODING 200
SWIDTH 500 0
DWIDTH 31 0
BBX 0 0 0 0
BITMAP
ENDCHAR
STARTCHAR 00C9
ENCODING 201
SWIDTH 500 0
DWIDTH 31 0
BBX 0 0 0 0
BITMAP
ENDCHAR
STARTCHAR 00CA
ENCODING 202
SWIDTH 500 0
DWIDTH 31 0
BBX 0 0 0 0
BITMAP
ENDCHAR
STARTCHAR 00CB
ENCODING 203
SWIDTH 500 0
DWIDTH 31 0
BBX 0 0 0 0
BITMAP
ENDCHAR
STARTCHAR 00CC
ENCODING 204
SWIDTH 500 0
DWIDTH 31 0
BBX 0 0 0 0
BITMAP
ENDCHAR
STARTCHAR 00CD
ENCODING 205
SWIDTH 500 0
DWIDTH 31 0
BBX 0 0 0 0
BITMAP
ENDCHAR
STARTCHAR 00CE
ENCODING 206
SWIDTH 500 0
DWIDTH 31 0
BBX 0 0 0 0
BITMAP
ENDCHAR
STARTCHAR 00CF
ENCODING 207
SWIDTH 500 0
DWIDTH 31 0
BBX 0 0 0 0
BITMAP
ENDCHAR
STARTCHAR 00D0
ENCODING 208
SWIDTH 500 0
DWIDTH 31 0
BBX 0 0 0 0
BITMAP
ENDCHAR
STARTCHAR 00D1
ENCODING 209
SWIDTH 500 0
DWIDTH 31 0
BBX 0 0 0 0
BITMAP
ENDCHAR
STARTCHAR 00D2
ENCODING 210
SWIDTH 500 0
DWIDTH 31 0
BBX 0 0 0 0
BITMAP
ENDCHAR
STARTCHAR 00D3
ENCODING 211
SWIDTH 500 0
DWIDTH 31 0
BBX 0 0 0 0
BITMAP
ENDCHAR
STARTCHAR 00D4
ENCODING 212
SWIDTH 500 0
DWIDTH 31 0
BBX 0 0 0 0
BITMAP
ENDCHAR
STARTCHAR 00D5
ENCODING 213
SWIDTH 500 0
DWIDTH 31 0
BBX 0 0 0 0
BITMAP
ENDCHAR
STARTCHAR 00D6
ENCODING 214
SWIDTH 500 0
DWIDTH 31 0
BBX 0 0 0 0
BITMAP
ENDCHAR
STARTCHAR 00D7
ENCODING 215
SWIDTH 500 0
DWIDTH 31 0
BBX 0 0 0 0
BITMAP
ENDCHAR
STARTCHAR 00D8
ENCODING 216
SWIDTH 500 0
DWIDTH 31 0
BBX 0 0 0 0
BITMAP
ENDCHAR
STARTCHAR 00D9
ENCODING 217
SWIDTH 500 0
DWIDTH 31 0
BBX 0 0 0 0
BITMAP
ENDCHAR
STARTCHAR 00DA
ENCODING 218
SWIDTH 500 0
DWIDTH 31 0
BBX 0 0 0 0
BITMAP
ENDCHAR
STARTCHAR 00DB
ENCODING 219
SWIDTH 500 0
DWIDTH 31 0
BBX 0 0 0 0
BITMAP
ENDCHAR
STARTCHAR 00DC
ENCODING 220
SWIDTH 500 0
DWIDTH 31 0
BBX 0 0 0 0
BITMAP
ENDCHAR
STARTCHAR 00DD
ENCODING 221
SWIDTH 500 0
DWIDTH 31 0
BBX 0 0 0 0
BITMAP
ENDCHAR
STARTCHAR 00DE
ENCODING 222
SWIDTH 500 0
DWIDTH 31 0
BBX 0 0 0 0
BITMAP
ENDCHAR
STARTCHAR 00DF
ENCODING 223
SWIDTH 500 0
DWIDTH 31 0
BBX 0 0 0 0
BITMAP
ENDCHAR
STARTCHAR 00E0
ENCODING 224
SWIDTH 500 0
DWIDTH 31 0
BBX 0 0 0 0
BITMAP
ENDCHAR
STARTCHAR 00E1
ENCODING 225
SWIDTH 500 0
DWIDTH 31 0
BBX 0 0 0 0
BITMAP
ENDCHAR
STARTCHAR 00E2
ENCODING 226
SWIDTH 500 0
DWIDTH 31 0
BBX 0 0 0 0
BITMAP
ENDCHAR
STARTCHAR 00E3
ENCODING 227
SWIDTH 500 0
DWIDTH 31 0
BBX 0 0 0 0
BITMAP
ENDCHAR
STARTCHAR 00E4
ENCODING 228
SWIDTH 500 0
DWIDTH 31 0
BBX 0 0 0 0
BITMAP
ENDCHAR
STARTCHAR 00E5
ENCODING 229
SWIDTH 500 0
DWIDTH 31 0
BBX 0 0 0 0
BITMAP
ENDCHAR
STARTCHAR 00E6
ENCODING 230
SWIDTH 500 0
DWIDTH 31 0
BBX 0 0 0 0
BITMAP
ENDCHAR
STARTCHAR 00E7
ENCODING 231
SWIDTH 500 0
DWIDTH 31 0
BBX 0 0 0 0
BITMAP
ENDCHAR
STARTCHAR 00E8
ENCODING 232
SWIDTH 500 0
DWIDTH 31 0
BBX 0 0 0 0
BITMAP
ENDCHAR
STARTCHAR 00E9
ENCODING 233
SWIDTH 500 0
DWIDTH 31 0
BBX 0 0 0 0
BITMAP
ENDCHAR
STARTCHAR 00EA
ENCODING 234
SWIDTH 500 0
DWIDTH 31 0
BBX 0 0 0 0
BITMAP
ENDCHAR
STARTCHAR 00EB
ENCODING 235
SWIDTH 500 0
DWIDTH 31 0
BBX 0 0 0 0
BITMAP
ENDCHAR
STARTCHAR 00EC
ENCODING 236
SWIDTH 500 0
DWIDTH 31 0
BBX 0 0 0 0
BITMAP
ENDCHAR
STARTCHAR 00ED
ENCODING 237
SWIDTH 500 0
DWIDTH 31 0
BBX 0 0 0 0
BITMAP
ENDCHAR
STARTCHAR 00EE
ENCODING 238
SWIDTH 500 0
DWIDTH 31 0
BBX 0 0 0 0
BITMAP
ENDCHAR
STARTCHAR 00EF
ENCODING 239
SWIDTH 500 0
DWIDTH 31 0
BBX 0 0 0 0
BITMAP
ENDCHAR
STARTCHAR 00F0
ENCODING 240
SWIDTH 500 0
DWIDTH 31 0
BBX 0 0 0 0
BITMAP
ENDCHAR
STARTCHAR 00F1
ENCODING 241
SWIDTH 500 0
DWIDTH 31 0
BBX 0 0 0 0
BITMAP
ENDCHAR
STARTCHAR 00F2
ENCODING 242
SWIDTH 500 0
DWIDTH 31 0
BBX 0 0 0 0
BITMAP
ENDCHAR
STARTCHAR 00F3
ENCODING 243
SWIDTH 500 0
DWIDTH 31 0
BBX 0 0 0 0
BITMAP
ENDCHAR
STARTCHAR 00F4
ENCODING 244
SWIDTH 500 0
DWIDTH 31 0
BBX 0 0 0 0
BITMAP
ENDCHAR
STARTCHAR 00F5
ENCODING 245
SWIDTH 500 0
DWIDTH 31 0
BBX 0 0 0 0
BITMAP
ENDCHAR
STARTCHAR 00F6
ENCODING 246
SWIDTH 500 0
DWIDTH 31 0
BBX 0 0 0 0
BITMAP
ENDCHAR
STARTCHAR 00F7
ENCODING 247
SWIDTH 500 0
DWIDTH 31 0
BBX 0 0 0 0
BITMAP
ENDCHAR
STARTCHAR 00F8
ENCODING 248
SWIDTH 500 0
DWIDTH 31 0
BBX 0 0 0 0
BITMAP
ENDCHAR
STARTCHAR 00F9
ENCODING 249
SWIDTH 500 0
DWIDTH 31 0
BBX 0 0 0 0
BITMAP
ENDCHAR
STARTCHAR 00FA
ENCODING 250
SWIDTH 500 0
DWIDTH 31 0
BBX 0 0 0 0
BITMAP
ENDCHAR
STARTCHAR 00FB
ENCODING 251
SWIDTH 500 0
DWIDTH 31 0
BBX 0 0 0 0
BITMAP
ENDCHAR
STARTCHAR 00FC
ENCODING 252
SWIDTH 500 0
DWIDTH 31 0
BBX 0 0 0 0
BITMAP
ENDCHAR
STARTCHAR 00FD
ENCODING 253
SWIDTH 500 0
DWIDTH 31 0
BBX 0 0 0 0
BITMAP
ENDCHAR
STARTCHAR 00FE
ENCODING 254
SWIDTH 500 0
DWIDTH 31 0
BBX 0 0 0 0
BITMAP
ENDCHAR
STARTCHAR 00FF
ENCODING 255
SWIDTH 500 0
DWIDTH 31 0
BBX 0 0 0 0
BITMAP
ENDCHAR
STARTCHAR 0152
ENCODING 338
SWIDTH 500 0
DWIDTH 31 0
BBX 0 0 0 0
BITMAP
ENDCHAR
STARTCHAR 0153
ENCODING 339
SWIDTH 500 0
DWIDTH 31 0
BBX 0 0 0 0
BITMAP
ENDCHAR
STARTCHAR 0160
ENCODING 352
SWIDTH 500 0
DWIDTH 31 0
BBX 0 0 0 0
BITMAP
ENDCHAR
STARTCHAR 0161
ENCODING 353
SWIDTH 500 0
DWIDTH 31 0
BBX 0 0 0 0
BITMAP
ENDCHAR
STARTCHAR 0178
ENCODING 376
SWIDTH 500 0
DWIDTH 31 0
BBX 0 0 0 0
BITMAP
ENDCHAR
STARTCHAR 017D
ENCODING 381
SWIDTH 500 0
DWIDTH 31 0
BBX 0 0 0 0
BITMAP
ENDCHAR
STARTCHAR 017E
ENCODING 382
SWIDTH 500 0
DWIDTH 31 0
BBX 0 0 0 0
BITMAP
ENDCHAR
STARTCHAR 0192
ENCODING 402
SWIDTH 500 0
DWIDTH 31 0
BBX 0 0 0 0
BITMAP
ENDCHAR
STARTCHAR 02C6
ENCODING 710
SWIDTH 500 0
DWIDTH 31 0
BBX 0 0 0 0
BITMAP
ENDCHAR
STARTCHAR 02DC
ENCODING 732
SWIDTH 500 0
DWIDTH 31 0
BBX 0 0 0 0
BITMAP
ENDCHAR
STARTCHAR 2013
ENCODING 8211
SWIDTH 500 0
DWIDTH 31 0
BBX 0 0 0 0
BITMAP
ENDCHAR
STARTCHAR 2014
ENCODING 8212
SWIDTH 500 0
DWIDTH 31 0
BBX 0 0 0 0
BITMAP
ENDCHAR
STARTCHAR 2018
ENCODING 8216
SWIDTH 500 0
DWIDTH 31 0
BBX 0 0 0 0
BITMAP
ENDCHAR
STARTCHAR 2019
ENCODING 8217
SWIDTH 500 0
DWIDTH 31 0
BBX 0 0 0 0
BITMAP
ENDCHAR
STARTCHAR 201A
ENCODING 8218
SWIDTH 500 0
DWIDTH 31 0
BBX 0 0 0 0
BITMAP
ENDCHAR
STARTCHAR 201C
ENCODING 8220
SWIDTH 500 0
DWIDTH 31 0
BBX 0 0 0 0
BITMAP
ENDCHAR
STARTCHAR 201D
ENCODING 8221
SWIDTH 500 0
DWIDTH 31 0
BBX 0 0 0 0
BITMAP
ENDCHAR
STARTCHAR 201E
ENCODING 8222
SWIDTH 500 0
DWIDTH 31 0
BBX 0 0 0 0
BITMAP
ENDCHAR
STARTCHAR 2020
ENCODING 8224
SWIDTH 500 0
DWIDTH 31 0
BBX 0 0 0 0
BITMAP
ENDCHAR
STARTCHAR 2021
ENCODING 8225
SWIDTH 500 0
DWIDTH 31 0
BBX 0 0 0 0
BITMAP
ENDCHAR
STARTCHAR 2022
ENCODING 8226
SWIDTH 500 0
DWIDTH 31 0
BBX 0 0 0 0
BITMAP
ENDCHAR
STARTCHAR 2026
ENCODING 8230
SWIDTH 500 0
DWIDTH 31 0
BBX 0 0 0 0
BITMAP
ENDCHAR
STARTCHAR 2030
ENCODING 8240
SWIDTH 500 0
DWIDTH 31 0
BBX 0 0 0 0
BITMAP
ENDCHAR
STARTCHAR 2039
ENCODING 8249
SWIDTH 500 0
DWIDTH 31 0
BBX 0 0 0 0
BITMAP
ENDCHAR
STARTCHAR 203A
ENCODING 8250
SWIDTH 500 0
DWIDTH 31 0
BBX 0 0 0 0
BITMAP
ENDCHAR
STARTCHAR 20AC
ENCODING 8364
SWIDTH 500 0
DWIDTH 31 0
BBX 0 0 0 0
BITMAP
ENDCHAR
STARTCHAR 2122
ENCODING 8482
SWIDTH 500 0
DWIDTH 31 0
BBX 0 0 0 0
BITMAP
ENDCHAR
STARTCHAR 2219
ENCODING 8729
SWIDTH 500 0
DWIDTH 31 0
BBX 0 0 0 0
BITMAP
ENDCHAR
ENDFONT
